<?xml version="1.0" encoding="utf-8"?>
<COLLADA xmlns="http://www.collada.org/2005/11/COLLADASchema" version="1.4.1" xmlns:xsi="http://www.w3.org/2001/XMLSchema-instance">
  <asset>
    <contributor>
      <author>Blender User</author>
      <authoring_tool>Blender 4.5.3 LTS commit date:2025-09-08, commit time:12:46, hash:67807e1800cc</authoring_tool>
    </contributor>
    <created>2025-09-28T22:57:27</created>
    <modified>2025-09-28T22:57:27</modified>
    <unit name="meter" meter="1"/>
    <up_axis>Z_UP</up_axis>
  </asset>
  <library_effects>
    <effect id="Material_002-effect">
      <profile_COMMON>
        <technique sid="common">
          <lambert>
            <emission>
              <color sid="emission">0 0 0 1</color>
            </emission>
            <diffuse>
              <color sid="diffuse">0.4051934 0.4047998 0.4049605 1</color>
            </diffuse>
            <index_of_refraction>
              <float sid="ior">1.5</float>
            </index_of_refraction>
          </lambert>
        </technique>
      </profile_COMMON>
    </effect>
  </library_effects>
  <library_images/>
  <library_materials>
    <material id="Material_002-material" name="Material.002">
      <instance_effect url="#Material_002-effect"/>
    </material>
  </library_materials>
  <library_geometries>
    <geometry id="Plane-mesh" name="Plane">
      <mesh>
        <source id="Plane-mesh-positions">
          <float_array id="Plane-mesh-positions-array" count="2490">-1 -1 0 1 -1 0 -1 1 0 1 1 0 0.8800003 -1 0 0.8800003 1 0 1 40 0 0.8800003 40 0 0.8800003 38 0 1 38 0 4 40 0 4 38 0 3.88 40 0 3.88 38 0 4 -60.00001 0 3.88 -60 0 4 -58 0 3.88 -57.99999 0 -4 -60 0 -4 -57.99999 0 -3.88 -60 0 -3.88 -57.99999 0 -4 40 0 -3.88 40 0 -4 38 0 -3.880001 38 0 -1 40 0 -1 38 0 -0.88 1 0 -0.88 -1 0 -1 40 0 -0.88 40 0 -1 38 0 -0.88 38 0 3.88 40 0 3.88 38 0 1.94 40 0 3.88 38 0 3.88 40 0 2.06 40 0 2.06 -13.73333 0 2.06 -13.73333 2 1.94 -57.99999 0 2.06 -57.99999 0 1.94 -28.66667 0 2.06 -28.66667 0 1.94 38 0 2.06 38 0 1.94 6.666667 0 2.06 6.666667 0 -2.06 38 0 -1.94 38 0 -2.06 6.666667 0 -1.94 6.666667 0 -2.06 -57.99999 0 -1.94 -57.99999 0 -1.94 4.666667 0 -2.06 4.666667 0 -2.06 -26.66667 0 -1.94 -26.66667 0 -2.06 -28.66667 0 -1.94 -28.66667 0 -2.06 38 0 -1.94 38 0 -2.06 6.666667 0 -1.94 6.666667 0 -3.88 -26.66667 0 -3.88 -28.66667 0 -3.88 6.666667 0 -3.88 4.666667 0 3.88 6.666667 0 3.88 4.666667 0 3.88 -26.66667 0 3.88 -28.66667 0 -1 1 0 -1 -1 0 0.8800003 -1 0 1 -1 0 1 1 0 -0.88 1 0 -0.88 -1 0 0.8800003 1 0 1 40 0 0.8800003 40 0 0.8800003 38 0 1 38 0 4 38 0 4 40 0 1.94 40 0 3.88 38 0 3.88 40 0 3.88 -60 0 4 -60.00001 0 4 -58 0 3.88 -57.99999 0 -4 -57.99999 0 -4 -60 0 -3.88 -60 0 -3.88 -57.99999 0 -3.88 40 0 -4 40 0 -4 38 0 -3.880001 38 0 -1 40 0 -1 38 0 -0.88 40 0 -1 40 0 -1 38 0 -0.88 38 0 2.06 40 0 1.94 38 0 2.06 38 0 3.88 38 0 3.88 40 0 1.94 6.666667 0 2.06 6.666667 0 1.94 -57.99999 0 2.06 -57.99999 0 2.06 4.666667 0 1.94 -28.66667 0 2.06 -26.66667 0 1.94 4.666667 0 1.94 -26.66667 0 2.06 -28.66667 0 2.06 38 0 2.06 6.666667 0 1.94 6.666667 0 1.94 38 0 -2.06 38 0 -1.94 38 0 -1.94 6.666667 0 -2.06 -57.99999 0 -2.06 -57.99999 0 -2.06 -28.66667 0 -1.94 -26.66667 0 -2.06 4.666667 0 -2.06 6.666667 0 -2.06 -26.66667 0 -2.06 6.666667 0 -2.06 38 0 -1.94 6.666667 0 -3.88 -28.66667 0 -3.88 -26.66667 0 -3.88 4.666667 0 -3.88 6.666667 0 3.88 4.666667 0 3.88 6.666667 0 3.88 -28.66667 0 3.88 -26.66667 0 1 -1 0 1 1 0 4 38 0 4 40 0 -1 1 0 -1 -1 0 0.8800003 -1 0 1 -1 0 1 1 0 -0.88 1 0 -0.88 -1 0 0.8800003 1 0 1 40 0 0.8800003 40 0 0.8800003 38 0 1 38 0 4 38 0 4 40 0 1.94 40 0 3.88 38 0 3.88 40 0 3.88 -60 0 4 -60.00001 0 4 -58 0 3.88 -57.99999 0 -4 -57.99999 0 -4 -60 0 -3.88 -60 0 -3.88 -57.99999 0 -3.88 40 0 -4 40 0 -4 38 0 -3.880001 38 0 -1 40 0 -1 38 0 -0.88 40 0 -1 40 0 -1 38 0 -0.88 38 0 2.06 40 0 1.94 38 0 2.06 38 0 3.88 38 0 3.88 40 0 1.94 6.666667 0 2.06 6.666667 0 2.06 4.666667 0 1.94 -28.66667 0 1.94 -57.99999 0 2.06 -26.66667 0 1.94 4.666667 0 1.94 -26.66667 0 2.06 -28.66667 0 2.06 -57.99999 0 2.06 38 0 2.06 6.666667 0 1.94 6.666667 0 1.94 38 0 -2.06 38 0 -1.94 38 0 -1.94 6.666667 0 -1.940001 -28.66667 0 -2.06 -57.99999 0 -2.06 -28.66667 0 -1.94 -26.66667 0 -2.06 4.666667 0 -2.06 6.666667 0 -2.06 -26.66667 0 -1.94 -28.66667 0 -1.94 -57.99999 0 -2.06 6.666667 0 -2.06 38 0 -1.94 6.666667 0 -3.88 -28.66667 0 -3.88 -26.66667 0 -3.88 4.666667 0 -3.88 6.666667 0 3.88 6.666667 0 3.88 4.666667 0 3.88 -28.66667 0 3.88 -26.66667 0 2.06 38 0 2.06 6.666667 0 1.94 6.666667 0 1.94 38 0 4 -60.00001 0 4 -58 0 2.06 -28.66667 0 3.88 -28.66667 0 -1 1 0 -1 -1 0 0.8800003 -1 0 1 -1 0 1 1 0 -0.88 1 0 -0.88 -1 0 0.8800003 1 0 1 40 0 0.8800003 40 0 0.8800003 38 0 1 38 0 4 38 0 4 40 0 1.94 40 0 3.88 38 0 3.88 40 0 3.88 -60 0 4 -60.00001 0 4 -58 0 3.88 -57.99999 0 -4 -57.99999 0 -4 -60 0 -3.88 -60 0 -3.88 -57.99999 0 -3.88 40 0 -4 40 0 -4 38 0 -3.880001 38 0 -1 40 0 -1 38 0 -0.88 40 0 -1 40 0 -1 38 0 -0.88 38 0 2.06 40 0 1.94 38 0 2.06 38 0 3.88 38 0 3.88 40 0 1.94 6.666667 0 2.06 6.666667 0 2.06 4.666667 0 1.94 -28.66667 0 1.94 -57.99999 0 2.06 -26.66667 0 1.94 4.666667 0 1.94 -26.66667 0 2.06 -28.66667 0 2.06 -57.99999 0 2.06 38 0 2.06 6.666667 0 -2.06 38 0 -1.94 38 0 -2.06 -28.66667 0 -2.06 6.666667 0 -2.06 -57.99999 0 -2.06 -28.66667 0 -1.94 -26.66667 0 -2.06 4.666667 0 -2.06 6.666667 0 -2.06 -26.66667 0 -1.94 -28.66667 0 -1.94 -57.99999 0 -2.06 6.666667 0 -2.06 38 0 -2.06 -26.66667 0 -3.88 -28.66667 0 -3.88 -26.66667 0 -3.88 4.666667 0 -3.88 6.666667 0 3.88 6.666667 0 3.88 4.666667 0 3.88 -28.66667 0 3.88 -26.66667 0 2.06 38 0 2.06 6.666667 0 1.94 6.666667 0 1.94 38 0 4 -60.00001 0 4 -58 0 2.06 -28.66667 0 3.88 -28.66667 0 -1 1 0 -1 -1 0 0.8800003 -1 0 1 -1 0 1 1 0 -0.88 1 0 -0.88 -1 0 0.8800003 1 0 1 40 0 0.8800003 40 0 0.8800003 38 0 1 38 0 4 38 0 4 40 0 1.94 40 0 3.88 38 0 3.88 40 0 3.88 -60 0 4 -60.00001 0 4 -58 0 3.88 -57.99999 0 -4 -57.99999 0 -4 -60 0 -3.88 -60 0 -3.88 -57.99999 0 -3.88 40 0 -4 40 0 -4 38 0 -3.880001 38 0 -1 40 0 -1 38 0 -0.88 40 0 -1 40 0 -1 38 0 -0.88 38 0 2.06 40 0 1.94 38 0 2.06 38 0 3.88 38 0 3.88 40 0 1.94 6.666667 0 2.06 6.666667 0 2.06 4.666667 0 1.94 -28.66667 0 -3.98 -57.99999 0 2.06 -26.66667 0 1.94 4.666667 0 1.94 -26.66667 0 2.06 -28.66667 0 2.06 -57.99999 0 2.06 38 0 2.06 6.666667 0 -2.06 38 0 -1.94 38 0 -1.940001 -57.99999 0 -2.06 -26.66667 2 -2.06 -57.99999 0 -2.06 -28.66667 0 -1.94 -26.66667 0 -2.06 4.666667 0 -2.06 6.666667 0 -2.06 -26.66667 0 -1.94 -28.66667 0 -1.94 -57.99999 0 -2.06 6.666667 0 -2.06 38 0 -2.06 4.666667 0 -3.88 -28.66667 0 -3.88 -26.66667 0 -3.88 4.666667 0 -3.88 6.666667 0 3.88 6.666667 0 3.88 -28.66667 0 3.88 -26.66667 0 2.06 38 0 2.06 6.666667 0 1.94 6.666667 0 1.94 38 0 2.97 4.666667 0 4 6.666667 0 2.06 6.666667 0 1.94 6.666667 0 2.06 4.666667 0 1.94 4.666667 0 3.88 6.666667 0 2.06 4.666667 0 2.97 4.666667 0 4 4.666667 0 2.06 4.666667 0 4 4.666667 0 2.06 6.666667 0 4 6.666667 0 1.94 6.666667 0 1.94 4.666667 0 2.06 4.666667 0 3.88 6.666667 0 3.88 4.666667 0 2.06 4.666667 0 2.06 4.666667 0 2.06 6.666667 0 1.94 6.666667 0 1.94 4.666667 0 2.06 4.666667 0 2.06 4.666667 0 2.06 4.666667 0 2.06 6.666667 0 2.06 6.666667 0 1.94 6.666667 0 1.94 4.666667 0 2.06 4.666667 0 2.06 4.666667 0 2.06 6.666667 0 2.06 6.666667 0 1.94 6.666667 0 1.94 4.666667 0 2.06 4.666667 0 2.06 4.666667 0 2.06 6.666667 0 4 38 3 4 40 3 3.88 38 3 3.88 40 3 -3.880001 38 3 -3.88 40 3 -1 38 3 -1 40 3 2.06 4.666666 3 1.94 4.666668 3 -2.06 6.666667 3 -2.06 -26.66667 3 -1.940001 -28.66667 3 -2.06 4.666667 3 -1.94 38 3 -1.940001 -26.66667 3 -1.940001 -57.99999 3 -2.06 38 3 1.94 -57.99999 3 2.06 -57.99999 3 1.94 -28.66667 3 2.06 -28.66667 3 -1 1 3 -1 -1 3 0.8800003 -1 3 1 -1 3 1 1 3 -0.88 1 3 -0.88 -1 3 0.8800003 1 3 1 40 3 0.8800003 40 3 0.8800003 38 3 1 38 3 1.94 40 3 3.88 38 3 4 38 3 3.88 -60 3 4 -60.00001 3 4 -58 3 3.88 -57.99999 3 -4 -57.99999 3 -4 -60 3 -3.88 -60 3 -3.88 -57.99999 3 -3.88 40 3 -4 40 3 -4 38 3 -3.880001 38 3 -0.88 40 3 -1 40 3 -1 38 3 -0.88 38 3 2.06 40 3 1.94 38 3 2.06 38 3 3.88 38 3 3.88 40 3 2.06 -26.66667 3 2.06 4.666667 3 1.94 4.666667 3 1.94 -26.66667 3 2.06 -28.66667 3 1.94 -28.66667 3 -2.06 -28.66667 3 -1.940001 6.666667 3 -2.06 4.666667 3 -2.06 6.666667 3 -2.06 -26.66667 3 -1.940001 4.666667 3 -2.06 -28.66667 3 -3.88 -28.66667 3 -3.88 -26.66667 3 -3.88 4.666667 3 -3.88 6.666667 3 3.88 -28.66667 3 3.88 -26.66667 3 2.06 4.666667 3 4 4.666667 3 2.06 6.666667 3 4 6.666667 3 1.94 6.666667 3 1.94 4.666667 3 2.06 4.666667 3 2.06 6.666667 3 2.06 4.666667 3 2.06 4.666667 3 2.06 -57.99999 2 2.06 -28.66667 2 1.94 -28.66667 2 1.94 -57.99999 2 1.94 -37.73333 2 2.06 -47.06666 2 1.94 -37.73333 0 2.06 -37.73333 0 1.94 -57.99999 3 2.06 -37.73333 2 2.06 -47.06666 0 1.94 -47.06666 2 1.94 -47.06666 0 1.94 -37.73333 2 1.94 -37.73333 0 1.94 -47.06666 2 1.94 -47.06666 0 1.94 -37.73333 2 1.94 -37.73333 0 1.94 -47.06666 2 1.94 -47.06666 0 1.94 -37.73333 2 1.94 -37.73333 0 1.94 -47.06666 2 2.06 -37.73333 0 2.06 -37.73333 2 2.06 -37.73333 0 2.06 -37.73333 2 2.06 -57.99999 2 2.06 -28.66667 2 2.06 -37.73333 0 2.06 -37.73333 2 1.94 4.666668 0 1.94 -13.73333 0 2.06 4.666666 0 1.94 -13.73333 2 2.06 4.666666 3 1.94 4.666668 3 2.06 -26.66667 2 2.06 4.666666 2 1.94 4.666668 2 2.06 -13.73333 2 2.06 -13.73333 0 1.94 -4.399994 2 1.94 -4.399994 0 1.94 -13.73333 2 1.94 -13.73333 0 2.06 4.666666 2 2.06 -4.399994 0 2.06 -4.399994 2 1.94 4.666668 3 2.06 4.666666 3 2.06 -13.73333 2 2.06 -13.73333 0 1.94 4.666668 2 2.06 4.666666 2 1.94 -4.399994 2 1.94 -4.399994 0 1.94 -13.73333 2 1.94 -13.73333 0 2.06 -4.399994 0 2.06 -4.399994 2 1.94 -26.66666 0 2.06 4.666666 0 2.06 4.666666 2 1.94 -26.66666 3 1.94 4.666668 0 1.94 4.666668 3 2.06 4.666666 3 2.06 -13.73333 2 2.06 -13.73333 0 1.94 4.666668 2 2.06 4.666666 2 1.94 -4.399994 2 1.94 -4.399994 0 1.94 -13.73333 2 1.94 -13.73333 0 2.06 -4.399994 0 2.06 -4.399994 2 1.94 -4.399994 2 2.06 4.666666 0 2.06 4.666666 2 1.94 4.666668 2 1.94 4.666668 0 2.06 -26.66666 3 1.94 -26.66666 3 2.06 -26.66666 0 1.94 -26.66666 0 1.94 4.666668 2 2.06 4.666666 2 1.94 -4.399994 2 1.94 -4.399994 0 1.94 -13.73333 2 1.94 -13.73333 0 2.06 -4.399994 0 2.06 -4.399994 2 2.06 -4.399994 2 2.06 4.666666 0 2.06 4.666666 2 1.94 -4.399994 2 1.94 4.666668 0 2.06 19.60001 0 2.06 19.60001 2 2.06 38 3 1.94 38 3 1.94 38 3 2.06 38 3 1.94 38 2 2.06 38 2 1.94 28.93334 2 1.94 28.93334 0 1.94 19.60001 2 1.94 19.60001 0 2.06 28.93334 0 2.06 28.93334 2 2.06 38 0 2.06 38 2 1.94 38 0 2.06 38 2 2.06 19.60001 0 2.06 28.93334 0 2.06 28.93334 2 1.94 19.60001 0 2.06 38 3 1.94 28.93334 0 1.94 38 3 1.94 28.93334 2 1.94 19.60001 2 1.94 38 2 2.06 19.60001 2 1.94 38 3 2.06 38 3 2.06 38 0 2.06 38 2 1.94 38 0 2.06 38 2 2.06 19.60001 0 2.06 28.93334 0 2.06 28.93334 2 1.94 19.60001 0 2.06 38 3 1.94 28.93334 0 1.94 38 3 1.94 19.60001 2 2.06 19.60001 2 1.94 38 3 2.06 38 3 2.06 38 0 2.06 38 2 1.94 38 0 2.06 38 2 2.06 19.60001 0 2.06 28.93334 0 2.06 28.93334 2 1.94 19.60001 0 2.06 38 3 1.94 28.93334 0 1.94 38 3 1.94 28.93334 2 1.94 19.60001 2 1.94 38 2 2.06 19.60001 2 1.94 38 3 2.06 38 3 2.06 38 0 2.06 38 2 1.94 38 0 2.06 6.666679 2 1.94 6.666679 3 1.94 6.666679 2 2.06 6.666679 3 1.94 6.666679 3 2.06 6.666679 3 2.06 6.666679 2 2.06 6.666679 0 1.94 6.666679 0 1.94 19.60001 2 1.94 6.666679 2 2.06 2.266674 2 2.06 11.33333 2 -2.06 6.666667 3 -2.06 4.666667 3 -1.940001 4.666667 3 -1.940001 6.666667 3 -1.940001 4.666667 3 -1.940001 4.666667 3 -1.940001 -57.99999 2 -1.940001 -28.66667 2 -2.06 -28.66667 2 -2.06 -57.99999 2 -1.940001 -47.06666 2 -2.06 -57.99999 3 -1.940001 -47.06666 0 -2.06 -37.73333 2 -2.06 -37.73333 0 -2.06 -47.06666 2 -2.06 -47.06666 0 -1.940001 -57.99999 2 -1.940001 -28.66667 2 -1.940001 -37.73333 0 -1.940001 -37.73333 2 -1.94 -26.66667 2 -2.06 4.666668 3 -1.940001 4.666666 3 -1.940001 -13.73333 2 -1.940001 -13.73333 0 -2.06 4.666668 2 -2.06 -4.399994 2 -2.06 -4.399994 0 -2.06 -13.73333 2 -2.06 -13.73333 0 -1.940001 -4.399994 0 -1.940001 -4.399994 2 -1.940001 4.666666 0 -1.940001 4.666666 2 -2.06 4.666668 0 -1.940001 -26.66666 3 -2.06 -26.66666 3 -1.940001 -26.66666 0 -2.06 -26.66666 0 -2.06 4.666668 2 -2.06 -13.73333 2 -2.06 -13.73333 0 -1.940001 4.666666 2 -1.940001 19.60001 0 -1.940001 28.93334 0 -1.940001 28.93334 2 -2.06 19.60001 0 -2.06 28.93334 0 -2.06 28.93334 2 -2.06 38 2 -1.940001 19.60001 2 -2.06 38 3 -1.940001 38 3 -1.940001 38 0 -1.940001 38 2 -2.06 38 0 -2.06 6.666679 3 -1.940001 6.666679 3 -1.940001 6.666679 2 -1.940001 6.666679 0 -2.06 6.666679 0 -2.06 19.60001 2 -2.06 6.666679 2 -4.76837e-7 -60.00001 0 -4 0.9999981 0 -3.88 0.9999981 0 4 0.9999971 0 3.88 1.000001 0 -4.76837e-7 0.9999981 0 0.8799995 -60.00001 0 0.8799995 40 0 0.8799995 0.9999979 0 -0.8800004 -60.00001 0 -0.8800004 40 0 -0.8800004 0.9999981 0 2.06 4.666666 3 2.06 4.666666 2 1.94 1.23978e-5 3 1.94 1.23978e-5 2 1.94 1.23978e-5 0 1.94 9.53674e-7 3 1.94 9.53674e-7 2 1.94 -57.99999 2 1.94 -47.06666 2 2.06 -33.73333 2 1.94 -33.73333 2 2.06 -40.4 0 2.06 -31.06666 0 2.06 6.666679 1 2.06 6.666679 2 2.06 4.666666 2 2.06 4.666666 1 -2.46 6.666667 0 -2.34 6.666667 0 -2.34 4.666667 0 -2.46 4.666667 0 -1 38 0 -1.94 -57.99999 0 -1.940001 -4.399994 0 -1.94 -62.66666 0 -1.940001 -9.066661 0 1.94 38 0 1.94 6.666667 0 1.94 44.66667 0 1.94 13.33333 0 1 -1 0 1 40 0 -1.94 -11.33332 0 -1.94 18 0 -1.94 18 0 -1.94 64.66667 0 -1.94 4.666667 0 -1.94 -26.66667 0 -1.94 -62 0 -1.94 -93.33335 0 -1.94 -26.66667 0 -1.94 -28.66667 0 -1.940001 15.60001 0 -1.940001 58 0 -1 1 0 -0.88 1 0 1.94 -26.66667 2 1.94 -26.66667 0</float_array>
          <technique_common>
            <accessor source="#Plane-mesh-positions-array" count="830" stride="3">
              <param name="X" type="float"/>
              <param name="Y" type="float"/>
              <param name="Z" type="float"/>
            </accessor>
          </technique_common>
        </source>
        <source id="Plane-mesh-normals">
          <float_array id="Plane-mesh-normals-array" count="3549">0 0 1 0 0 1 0 0 1 0 0 1 0 0 1 0 0 1 0 0 1 0 0 1 0 0 1 0 0 1 1 0 0 0 0 1 0 0 1 0 0 1 0 0 1 0 0 1 0 0 1 -1 0 0 -1 0 0 0 0 1 0 0 1 0 0 1 1 0 0 0 0 1 0 0 1 1 0 0 0 0 1 0 0 1 0 0 1 0 0 1 0 0 1 0 0 1 0 0 1 0 0 1 0 0 1 0 0 1 0 0 1 0 0 1 0 0 1 0 0 1 0 0 1 0 0 1 -1 0 0 0 0 1 0 0 1 0 0 1 0 -1 0 0 0 1 0 0 1 0 0 1 0 0 1 0 0 1 0 0 1 0 0 1 0 0 1 0 0 1 0 0 1 0 0 1 0 0 1 0 0 1 -1 0 0 0 0 1 0 0 1 0 0 1 0 0 1 0 0 1 1.58946e-5 1 0 1 0 0 0 0 1 0 0 1 -1 0 0 0 0 1 0 0 1 0 0 1 0 0 1 1 0 0 0 0 1 0 0 1 0 0 1 0 -1 0 0 0 1 0 0 1 0 0 -1 0 0 1 0 0 1 0 0 1 0 0 -1 0 0 1 0 0 1 0 0 -1 0 0 1 0 0 1 0 0 1 0 0 1 0 0 1 0 0 1 0 0 1 0 0 1 0 0 1 0 0 1 0 0 1 0 0 1 0 0 1 0 0 1 0 0 1 1 0 0 0 0 1 0 0 1 0 0 1 0 0 1 0 0 1 0 0 1 0 0 1 0 0 1 0 0 1 0 0 1 0 0 1 0 0 1 0 0 1 0 0 1 0 0 1 0 0 1 0 0 1 0 0 -1 0 0 1 0 0 1 0 0 1 1 0 0 0 0 1 0 0 1 0 0 1 0 0 1 0 0 1 0 0 1 0 0 -1 0 0 1 0 0 1 0 0 1 0 0 1 0 0 1 0 0 1 0 0 1 0 0 1 0 0 1 0 0 1 0 0 1 0 0 1 0 0 1 0 0 1 0 0 1 0 0 1 0 0 1 0 0 1 0 0 1 0 0 1 0 0 1 0 0 1 0 0 1 0 0 1 0 0 1 0 0 1 0 0 1 0 0 1 0 0 1 0 0 1 0 0 1 0 0 1 0 0 1 0 0 1 0 0 1 0 0 1 0 0 1 0 0 1 0 0 1 0 0 1 0 0 1 0 0 1 0 0 1 0 0 1 0 0 1 0 0 1 0 0 1 0 0 1 0 0 1 0 0 1 0 0 1 0 0 1 0 0 1 -1 0 0 0 0 1 0 0 1 0 0 1 0 1 0 0 0 1 0 0 1 0 0 1 0 0 1 0 0 1 0 0 1 0 0 1 0 0 1 0 0 1 0 0 1 0 0 1 0 0 1 0 0 1 0 0 1 0 0 1 0 0 1 0 0 1 0 0 1 0 0 1 0 0 1 0 0 1 0 0 1 0 0 1 0 0 1 0 0 1 0 0 1 0 0 1 0 0 1 0 0 1 -1 0 0 0 0 1 0 0 1 0 0 1 -1 0 0 0 0 1 0 0 1 0 0 1 0 0 1 0 0 1 0 0 1 1 0 0 0 0 1 0 0 1 0 0 1 0 0 1 0 0 1 0 0 1 0 0 1 0 0 1 0 0 1 -3.17891e-5 -1 0 -1 0 0 0 1 0 1 0 0 1 0 0 3.17891e-5 1 0 -1 0 0 -4.05819e-6 1 0 0 1 0 0 -1 0 0 0 1 -1 0 0 1.58946e-5 1 0 1 0 2.38418e-7 0 0 1 0 -1 0 -1.58946e-5 -1 0 0 0 1 1 0 0 0 -1 0 0 1 0 0 0 1 0 0 1 0 -1 0 0 0 1 0 0 1 0 0 1 0 0 1 0 0 1 0 0 1 0 0 1 0 0 1 0 0 1 0 0 1 0 0 1 0 0 1 0 0 1 0 0 1 0 0 1 0 0 1 0 0 1 0 0 1 0 0 1 0 0 1 0 0 1 0 0 1 0 0 1 0 0 1 0 0 1 0 0 1 0 0 1 0 0 1 0 0 1 0 0 1 0 0 1 0 0 1 0 0 1 0 0 1 0 0 1 1 0 0 0 0 1 0 0 1 -1 0 0 0 0 1 0 0 1 0 0 1 0 0 1 0 0 1 0 0 1 0 0 1 0 0 1 0 0 1 3.17891e-5 1 0 0 0 1 0 0 1 0 0 1 0 0 1 0 0 1 0 0 1 0 0 1 0 0 1 0 0 1 0 0 1 0 0 1 0 0 1 0 0 1 0 -1 0 0 0 1 0 0 1 0 0 1 0 0 1 0 0 1 0 0 1 0 0 1 0 0 1 0 0 1 0 0 1 0 0 1 0 0 -1 0 1 0 0 0 1 0 0 1 0 0 1 0 0 1 0 0 1 0 0 1 0 0 1 0 0 1 0 0 1 0 0 1 0 0 1 0 0 1 0 0 1 0 0 1 0 0 1 0 0 1 0 0 1 -1 0 0 -1 0 0 0 0 1 0 0 1 0 0 1 0 0 1 0 0 -1 0 0 1 -1 0 0 0 1 0 1 0 0 0 0 1 0 0 -1 4.05819e-6 -1 0 -1 0 0 1 0 0 0 -1 0 0 -1 0 -1 0 0 1 0 0 0 -1 0 1 0 0 0 1 0 1 0 0 0 -1 0 0 -1 0 -1 0 0 0 1 0 -1 0 0 0 -1 0 0 1 0 0 -1 0 -1 2.38419e-7 0 0 0 -1 1 0 0 -1 0 0 0 1 0 0 -1 0 -1 0 0 0 -1 0 0 1 0 1 -2.38419e-7 0 -1 0 0 1 0 0 -1 0 0 0 1 0 -1 0 0 0 1 0 0 -1 0 1 0 0 0 1 0 1.32455e-6 -1 0 0 1 0 1 0 0 1 0 0 -1 0 0 1 0 0 0 0 1 0 1 0 -3.17891e-5 -1 0 0 1 0 -1 0 0 0 -1 0 -1 0 0 0 -1 0 1.58946e-5 1 0 1 0 0 0 0 1 1 0 0 0 0 1 0 0 1 0 0 1 0 0 1 0 0 1 0 0 1 0 0 1 0 0 1 0 0 1 0 0 1 0 0 1 0 0 1 0 0 1 0 0 1 1 0 0 1 0 0 -1 0 0 0 -1 0 0 0 1 -1 0 0 1 0 0 0 1 0 0 -1 0 0 0 1 0 0 1 0 0 1 0 0 1 0 0 1 0 0 1 0 0 1 0 0 1 0 0 1 0 0 1 0 0 1 0 0 1 0 0 1 0 0 1 -1 0 0 0 0 1 0 0 1 0 0 1 0 0 1 1 0 0 0 0 1 0 0 -1 0 0 1 0 0 1 0 0 -1 1 0 0 -1 0 0 0 -1 0 0 1 0 0 0 1 0 0 1 0 0 1 0 0 1 0 0 1 0 0 1 0 0 1 0 0 1 0 0 1 0 -1 0 0 0 1 0 1 0 0 0 1 0 -1 0 1 0 0 0 0 1 0 0 1 0 0 1 0 0 1 0 0 1 0 0 1 0 0 1 0 0 1 0 0 1 0 0 1 0 0 1 0 0 1 0 0 1 0 0 1 0 0 1 0 0 1 0 0 1 0 0 1 0 0 1 0 0 1 0 0 1 0 0 1 0 0 1 0 0 1 1 0 0 0 -1 0 0 0 -1 0 1 0 0 0 1 0 0 1 0 0 1 0 0 1 0 0 1 0 0 1 0 0 1 -1 0 0 0 0 -1 1 0 0 1 0 0 0 0 -1 1 0 0 0 0 1 1 0 0 0 0 -1 1 0 0 0 0 1 1 0 2.38419e-7 -1 0 0 0 0 -1 0 0 -1 0 0 1 0 0 -1 0 0 -1 0 0 1 0 0 -1 0 0 1 0 0 1 0 0 1 0 0 1 0 0 -1 0 0 1 0 0 1 0 0 1 0 0 1 1 0 0 -1 0 0 1 0 0 0 0 1 -1 0 0 0 1 0 0 0 1 0 0 1 0 0 1 0 0 1 0 0 1 0 0 1 0 0 1 0 0 1 0 0 1 0 0 1 0 0 1 0 0 1 0 0 1 0 0 1 0 0 1 0 0 1 0 0 1 -1 0 0 1.11262e-4 1 0 -1 0 0 1 0 0 0 0 1 0 0 1 0 0 1 0 0 1 0 0 1 0 0 1 0 0 1 0 0 1 0 0 1 0 0 1 1 0 0 0 0 1 0 0 1 0 0 1 0 0 1 0 0 1 0 0 1 -1 0 0 -1 0 0 0 0 1 0 0 1 0 0 1 1 0 0 0 0 1 0 0 1 1 0 0 0 0 1 0 0 1 0 0 1 0 0 1 0 0 1 0 0 1 0 0 1 0 0 1 0 0 1 0 0 1 0 0 1 0 0 1 0 0 1 0 0 1 0 0 1 0 0 1 -1 0 0 0 0 1 0 0 1 0 0 1 0 -1 0 0 0 1 0 0 1 0 0 1 0 0 1 0 0 1 0 0 1 0 0 1 0 0 1 0 0 1 0 0 1 0 0 1 0 0 1 0 0 1 -1 0 0 0 0 1 0 0 1 0 0 1 0 0 1 0 0 1 1.58946e-5 1 0 1 0 0 0 0 1 0 0 1 -1 0 0 0 0 1 0 0 1 0 0 1 0 0 1 1 0 0 0 0 1 0 0 1 0 0 1 0 -1 0 0 0 1 0 0 1 0 0 1 0 0 -1 0 0 1 0 0 1 0 0 1 0 0 1 0 0 1 0 0 1 0 0 -1 0 0 1 0 0 1 0 0 -1 0 0 1 0 0 1 0 0 1 0 0 1 0 0 1 0 0 1 0 0 1 0 0 1 0 0 1 0 0 1 0 0 1 0 0 1 0 0 1 0 0 1 0 0 1 1 0 0 0 0 1 0 0 1 0 0 1 0 0 1 0 0 1 0 0 1 0 0 1 0 0 1 0 0 1 0 0 1 0 0 1 0 0 1 0 0 1 0 0 1 0 0 1 0 0 1 0 0 1 0 0 -1 0 0 1 0 0 1 0 0 1 1 0 0 0 0 1 0 0 1 0 0 1 0 0 1 0 0 1 0 0 1 0 0 -1 0 0 1 0 0 1 0 0 1 0 0 1 0 0 1 0 0 1 0 0 1 0 0 1 0 0 1 0 0 1 0 0 1 0 0 1 0 0 1 0 0 1 0 0 1 0 0 1 0 0 1 0 0 1 0 0 1 0 0 1 0 0 1 0 0 1 0 0 1 0 0 1 0 0 1 0 0 1 0 0 1 0 0 1 0 0 1 0 0 1 0 0 1 0 0 1 0 0 1 0 0 1 0 0 1 0 0 1 0 0 1 0 0 1 0 0 1 0 0 1 0 0 1 0 0 1 0 0 1 0 0 1 0 0 1 0 0 1 0 0 1 0 0 1 0 0 1 0 0 1 0 0 1 0 0 1 0 0 1 -1 0 0 0 0 1 0 0 1 0 0 1 0 1 0 0 0 1 0 0 1 0 0 1 0 0 1 0 0 1 0 0 1 0 0 1 0 0 1 0 0 1 0 0 1 0 0 1 0 0 1 0 0 1 0 0 1 0 0 1 0 0 1 0 0 1 0 0 1 0 0 1 0 0 1 0 0 1 0 0 1 0 0 1 0 0 1 0 0 1 0 0 1 0 0 1 0 0 1 0 0 1 -1 0 0 0 0 1 0 0 1 0 0 1 -1 0 0 0 0 1 0 0 1 0 0 1 0 0 1 0 0 1 0 0 1 1 0 0 0 0 1 0 0 1 0 0 1 0 0 1 0 0 1 0 0 1 0 0 1 0 0 1 0 0 1 -3.17891e-5 -1 0 -1 0 0 0 1 0 1 0 0 1 0 0 3.17891e-5 1 0 -1 0 0 -4.05819e-6 1 0 0 1 0 0 -1 0 0 0 1 -1 0 0 1.58946e-5 1 0 1 0 0 0 0 1 0 -1 0 -1.58946e-5 -1 0 0 0 1 1 0 0 0 -1 0 0 1 0 0 0 1 0 0 1 0 -1 0 0 0 1 0 0 1 0 0 1 0 0 1 0 0 1 0 0 1 0 0 1 0 0 1 0 0 1 0 0 1 0 0 1 0 0 1 0 0 1 0 0 1 0 0 1 0 0 1 0 0 1 0 0 1 0 0 1 0 0 1 0 0 1 0 0 1 0 0 1 0 0 1 0 0 1 0 0 1 0 0 1 0 0 1 0 0 1 0 0 1 0 0 1 0 0 1 0 0 1 0 0 1 0 0 1 1 0 0 0 0 1 0 0 1 -1 0 0 0 0 1 0 0 1 0 0 1 0 0 1 0 0 1 0 0 1 0 0 1 0 0 1 0 0 1 0 0 1 3.17891e-5 1 0 0 0 1 0 0 1 0 0 1 0 0 1 0 0 1 0 0 1 0 0 1 0 0 1 0 0 1 0 0 1 0 0 1 0 0 1 0 0 1 0 -1 0 0 0 1 0 0 1 0 0 1 0 0 1 0 0 1 0 0 1 0 0 1 0 0 1 0 0 1 0 0 1 0 0 1 0 0 -1 0 1 0 0 0 1 0 0 1 0 0 1 0 0 1 0 0 1 0 0 1 0 0 1 0 0 1 0 0 1 0 0 1 0 0 1 0 0 1 0 0 1 0 0 1 0 0 1 0 0 1 0 0 1 -1 0 0 -1 0 0 0 0 1 0 0 1 0 0 1 0 0 1 0 0 1 0 0 -1 0 0 1 0 0 1 0 0 1 0 0 1 -1 0 0 0 1 0 1 0 0 0 0 1 0 0 -1 4.05819e-6 -1 0 -1 0 0 1 0 0 0 -1 0 0 -1 0 -1 0 0 1 0 0 0 -1 0 1 0 0 0 1 0 1 0 0 0 -1 0 0 -1 0 -1 0 0 0 1 0 -1 0 0 0 -1 0 0 1 0 0 -1 0 -1 2.38419e-7 0 0 0 -1 1 0 0 -1 0 0 0 1 0 0 -1 0 -1 0 0 0 -1 0 0 1 0 1 -2.38419e-7 0 -1 0 0 1 0 0 -1 0 0 0 1 0 -1 0 0 0 1 0 0 -1 0 1 0 0 0 1 0 1.32455e-6 -1 0 0 1 0 1 0 0 1 0 0 -1 0 0 1 0 0 0 0 1 0 1 0 -3.17891e-5 -1 0 0 1 0 -1 0 0 0 -1 0 -1 0 0 0 -1 0 1.58946e-5 1 0 1 0 0 0 0 1 1 0 0 0 0 1 0 0 1 0 0 1 0 0 1 0 0 1 0 0 1 0 0 1 0 0 1 0 0 1 0 0 1 0 0 1 0 0 1 0 0 1 0 0 1 1 0 0 1 0 0 -1 0 0 0 -1 0 0 0 1 -1 0 0 1 0 0 0 1 0 0 -1 0 0 0 1 0 0 1 0 0 1 0 0 1 0 0 1 0 0 1 0 0 1 0 0 1 0 0 1 0 0 1 0 0 1 0 0 1 0 0 1 0 0 1 -1 0 -2.38418e-7 0 0 1 0 0 1 0 0 1 0 0 1 1 0 0 0 0 1 0 0 -1 0 0 1 0 0 1 0 0 -1 1 0 0 -1 0 0 0 -1 0 0 1 0 0 0 1 0 0 1 0 0 1 0 0 1 0 0 1 0 0 1 0 0 1 0 0 1 0 0 1 0 -1 0 0 0 1 0 1 0 0 0 1 0 -1 0 1 0 0 0 0 1 0 0 1 0 0 1 0 0 1 0 0 1 0 0 1 0 0 1 0 0 1 0 0 1 0 0 1 0 0 1 0 0 1 0 0 1 0 0 1 0 0 1 0 0 1 0 0 1 0 0 1 0 0 1 0 0 1 0 0 1 0 0 1 0 0 1 0 0 1 1 0 0 0 -1 0 0 0 -1 0 1 0 0 0 1 0 0 1 0 0 1 0 0 1 0 0 1 0 0 1 0 0 1 -1 0 0 0 0 -1 1 0 0 1 0 0 0 0 -1 1 0 0 0 0 1 1 0 0 0 0 -1 1 0 0 0 0 1 1 0 2.38419e-7 -1 0 0 0 0 -1 0 0 -1 0 0 1 0 0 -1 0 0 -1 0 0 1 0 0 -1 0 0 1 0 0 1 0 0 1 0 0 1 0 0 -1 0 0 1 0 0 1 0 0 1 0 0 1 1 0 0 -1 0 0 1 0 0 0 0 1 -1 0 0 0 1 0 0 0 1 0 0 1 0 0 1 0 0 1 0 0 1 0 0 1 0 0 1 0 0 1 0 0 1 0 0 1 0 0 1 0 0 1 0 0 1 0 0 1 0 0 1 0 0 1 0 0 1 -1 0 0 1.11262e-4 1 0 -1 0 0 1 0 0</float_array>
          <technique_common>
            <accessor source="#Plane-mesh-normals-array" count="1183" stride="3">
              <param name="X" type="float"/>
              <param name="Y" type="float"/>
              <param name="Z" type="float"/>
            </accessor>
          </technique_common>
        </source>
        <source id="Plane-mesh-map-0">
          <float_array id="Plane-mesh-map-0-array" count="7098">0 0 0 0 0 0 0 0 0 0 0 0 0 0 0 0 0 0 0 0 0 0 0 0 1 1 1 1 1 1 0 0 0 0 0 0 0 0 0 0 0 0 0 0 0 0 0 0 0 0 0 0 0 0 0 0 0 0 0 0 1 1 1 1 1 1 0 0 0 0 0 0 0 0 0 0 0 0 0 0 0 0 0 0 1 1 1 1 1 1 0 0 0 0 0 0 0 0 0 0 0 0 0 0 0 1 0 1 1 1 1 1 1 1 0 0 0 0 0 0 0 0 0 0 0 0 1 1 1 1 1 1 0 0 0 0 0 0 0 0 0 0 0 0 1 1 1 1 1 1 0 0 0 0 0 0 0 0 0 0 0 0 0 0 0 0 0 0 0 0 0 0 0 0 0 0 0 0 0 0 0 0 0 0 0 0 0 0 0 0 0 0 0 0 0 0 0 0 0 0 0 0 0 0 0 0 0 0 0 0 0 0 0 0 0 0 0 0 0 0 0 0 1 1 1 1 1 1 0 0 0 0 0 0 0 0 0 0 0 0 1 1 1 1 1 1 1 1 1 1 1 1 0 0 0 0 0 0 0 0 0 0 0 0 0 0 0 0 0 0 0 0 0 0 0 0 1 1 0 0 0 0 1 1 1 1 1 1 0 0 0 0 0 0 0 0 0 0 0 0 0 0 0 0 0 0 0 0 0 0 0 0 0 0 0 0 0 0 0 0 0 0 0 0 0 0 0 0 0 0 0 0 0 0 0 0 0 0 0 0 0 0 0 0 0 0 0 0 0 0 0 0 0 0 0 0 0 0 0 0 0 0 0 0 0 0 0 0 0 0 0 0 0 0 0 0 0 0 0 0 0 0 0 0 0 0 0 0 0 0 0 0 0 0 0 0 0 0 0 0 0 0 0 0 0 0 0 0 0 0 0 0 0 0 0 0 0 0 0 0 0 0 0 0 0 0 0 0 0 0 0 0 0 0 0 0 0 0 1 1 1 1 1 1 0 0 0 0 0 0 0 0 0 0 0 0 0 0 0 0 0 0 0 0 0 0 0 0 1 1 1 1 1 1 0 0 0 0 0 0 1 1 1 1 1 1 0 0 0 0 0 0 0 0 1 1 0 0 0 0 0 0 0 0 0 0 0 0 0 0 0 0 0 0 0 0 0 0 0 0 0 0 0 0 0 0 0 0 0 0 0 0 0 0 0 0 0 0 0 0 0 0 0 0 0 0 0 0 0 0 0 0 1 1 1 1 1 1 1 1 1 1 1 1 1 1 1 1 1 1 0 0 0 0 0 0 0 0 0 0 0 0 0 0 0 0 0 0 0 0 0 0 0 0 0 0 0 0 0 0 1 1 1 1 1 1 0 0 0 0 0 0 0 0 0 0 0 0 0 0 0 0 0 0 1 1 1 1 1 1 0 0 0 0 0 0 0 0 0 0 0 0 1 1 1 1 1 1 0 0 0 0 0 0 0 0 0 0 0 0 1 1 1 1 1 1 1 1 1 1 1 1 0 0 0 0 0 0 0 0 0 0 0 0 1 1 1 1 1 1 0 0 0 0 0 0 0 0 0 0 0 0 0 0 0 0 0 0 1 1 1 1 1 1 0 0 0 0 0 0 0 0 0 0 0 0 0 0 0 0 0 0 0 0 0 0 0 0 0 0 0 0 0 0 0 0 0 0 0 0 0 0 0 0 0 0 1 1 1 1 1 1 0 0 0 0 0 0 0 0 0 0 0 0 0 0 0 0 0 0 1 1 1 1 1 1 1 1 1 1 1 1 0 0 0 0 0 0 0 0 0 0 0 0 0 0 0 0 0 0 0 0 0 0 0 0 0 0 0 0 0 0 1 1 1 1 1 1 0 0 0 0 0 0 0 0 0 0 0 0 0 0 0 0 0 0 0 0 0 0 0 0 1 1 1 1 1 1 0 0 0 0 0 0 0 0 0 0 0 0 0 0 0 0 0 0 0 0 0 0 0 0 1 1 1 1 1 1 1 1 1 1 1 1 0 0 0 0 0 0 1 1 1 1 1 1 0 0 0 0 0 0 0 0 0 0 0 0 0 0 0 0 0 0 0 0 0 0 0 0 0 0 0 0 0 0 0 0 0 0 0 0 0 0 0 0 0 0 0 0 0 0 0 0 1 1 1 1 1 1 1 1 1 1 1 1 0 0 0 0 0 0 1 1 1 1 1 1 0 0 0 0 0 0 0 0 0 0 0 0 0 0 0 0 0 0 0 0 0 0 0 0 0 0 0 0 0 0 0 0 0 0 0 0 0 0 0 0 0 0 0 0 0 0 0 0 0 0 0 0 0 0 1 1 1 1 1 1 0 0 0 0 0 0 0 0 0 0 0 0 1 1 1 1 1 1 1 1 1 1 1 1 0 0 0 0 0 0 0 0 0 0 0 0 0 0 0 0 0 0 0 0 0 0 0 0 1 1 1 1 1 1 0 0 0 0 0 0 0 0 0 0 0 0 0 0 0 0 0 0 0 0 0 0 0 0 0 0 0 0 0 0 0 0 0 0 0 0 0 0 0 0 0 0 0 0 0 0 0 0 0 0 0 0 0 0 1 1 1 1 1 1 0 0 0 0 0 0 0 0 0 0 0 0 0 0 0 0 0 0 0 0 0 0 0 0 0 0 0 0 0 0 0 0 0 0 0 0 1 1 1 1 1 1 0 0 0 0 0 0 1 1 1 1 1 1 0 0 0 0 0 0 0 0 0 0 0 0 0 0 0 0 0 0 0 0 0 0 0 0 0 0 0 0 0 0 0 0 0 0 0 0 0 0 0 0 0 0 1 1 1 1 1 1 1 1 1 1 1 1 0 0 0 0 0 0 0 0 0 0 0 0 0 0 0 0 0 0 0 0 0 0 0 0 0 0 0 0 0 0 1 1 1 1 1 1 0 0 0 0 0 0 0 0 0 0 0 0 1 1 1 1 1 1 1 1 1 1 1 1 0 0 0 0 0 0 0 0 0 0 0 0 0 0 0 0 0 0 0 0 0 0 0 0 0 0 0 0 0 0 1 1 1 1 1 1 0 0 0 0 0 0 0 0 0 0 0 0 0 0 0 0 0 0 1 1 1 1 1 1 0 0 0 0 0 0 0 0 0 0 0 0 0 0 0 0 0 0 0 0 0 0 0 0 0 0 0 0 0 0 0 0 0 0 0 0 0 0 0 0 0 0 0 0 0 0 0 0 0 0 0 0 0 0 1 1 1 1 1 1 0 0 0 0 0 0 0 0 0 0 0 0 0 0 0 0 0 0 0 0 0 0 0 0 0 0 0 0 0 0 0 0 0 0 0 0 0 0 0 0 0 0 0 0 0 0 0 0 1 1 1 1 1 1 0 0 1 1 1 1 0 0 0 0 0 0 0 0 0 0 0 0 0 0 0 0 0 0 1 1 1 1 1 1 1 1 1 1 1 1 1 1 1 1 1 1 0 0 0 0 0 0 1 1 1 1 1 1 0 0 0 0 0 0 1 1 1 1 1 1 1 1 1 1 1 1 0 0 0 0 0 0 0 0 0 0 0 0 0 0 0 0 0 0 1 1 1 1 1 1 0 0 0 0 0 0 0 0 0 0 0 0 0 0 0 0 0 0 0 0 0 0 0 0 0 0 0 0 0 0 0 0 0 0 0 0 0 0 0 0 0 0 1 1 1 1 1 1 0 0 0 0 0 0 0 0 0 0 0 0 0 0 0 0 0 0 0 0 0 0 0 0 0 0 0 0 0 0 0 0 0 0 0 0 0 0 0 0 0 0 0 0 0 0 0 0 0 0 0 0 0 0 1 1 1 1 1 1 1 1 1 1 1 1 0 0 0 0 0 0 0 0 0 0 0 0 0 0 0 0 0 0 0 0 0 0 0 0 0 0 0 0 0 0 0 0 0 0 0 0 0 0 0 0 0 0 0 0 0 0 0 0 1 1 1 1 1 1 1 1 1 1 1 1 0 0 0 0 0 0 0 0 0 0 0 0 0 0 0 0 0 0 0 0 0 0 0 0 0 0 0 0 0 0 0 0 0 0 0 0 1 1 1 1 1 1 0 0 0 0 0 0 0 0 0 0 0 0 0 0 0 0 0 0 1 1 1 1 1 1 0 0 0 0 0 0 0 0 0 0 0 0 0 0 0 0 0 0 1 1 1 1 1 1 0 0 0 0 0 0 0 0 0 0 0 0 0 0 0 0 0 0 1 1 1 1 1 1 1 1 0 0 0 0 0 0 0 0 0 0 1 1 1 1 1 1 0 0 0 0 0 0 0 0 1 1 1 1 0 0 0 0 0 0 0 0 0 0 0 0 0 0 0 0 0 0 0 0 0 0 0 0 1 1 0 0 0 0 1 1 1 1 1 1 1 1 1 1 1 1 1 1 0 0 0 0 0 0 0 0 0 0 0 0 0 0 0 0 1 1 1 1 1 1 0 0 0 0 0 0 0 0 1 1 1 1 0 0 0 0 0 0 0 0 0 0 0 0 1 1 1 1 1 1 0 0 0 0 0 0 1 1 1 1 1 1 0 0 0 0 0 0 0 0 1 1 1 1 1 1 1 1 1 1 1 1 1 1 1 1 1 1 1 1 1 1 0 0 0 0 0 0 0 0 0 0 0 0 1 0 0.9500001 1 0.9500001 0 0.9500001 0 0 1 0 0 1 1 0.9500001 1 0.9500001 1 1 1 0.9500001 1 0.9500001 1 1 1 1 1 1 1 1 1 1 1 1 1 1 1 1 1 1 1 1 1 1 1 1 1 1 1 1 1 1 1 1 1 1 1 1 1 0 0 0 1 0 0 0 1 0 1 0 1 0 1 0 1 0 1 1 1 1 1 1 1 1 1 1 1 1 1 1 1 1 1 1 1 1 1 1 1 1 1 0 0 0 0 0 0 0 0 0 0 0 0 1 1 1 1 1 1 1 1 1 1 1 1 1 1 1 1 1 1 1 1 1 1 1 1 0 0 1 1 0 0 0 0 0 0 0 0 0 0 0 0 0 0 0 0 0 0 0 0 0 0 0 0 0 0 0 0 0 0 0 0 0 0 0 0 0 0 0 0 0 0 0 0 0 0 0 0 0 0 0 0 0 0 0 0 0 0 0 0 0 0 0 0 0 0 0 0 0 0 0 0 0 0 1 1 1 1 1 1 0 0 0 0 0 0 0 0 0 0 0 0 0 0 0 0 0 0 0 0 0 0 0 0 1 1 1 1 1 1 0 0 0 0 0 0 0 0 0 0 0 0 0 0 0 0 0 0 1 1 1 1 1 1 0 0 0 0 0 0 0 0 0 0 0 0 0 0 0 0 0 0 1 1 1 1 1 1 0 0 0 0 0 0 0 0 0 0 0 0 0 0 0 0 0 0 0 0 0 0 0 0 0 0 0 0 0 0 0 0 0 0 0 0 0 0 0 0 0 0 0 0 0 0 0 0 1 1 1 1 1 1 0 0 0 0 0 0 0 0 0 0 0 0 0 0 0 0 0 0 1 1 1 1 1 1 0 0 0 0 0 0 1 1 1 1 1 1 0 0 0 0 0 0 0 0 0 0 0 0 0 0 0 0 0 0 1 1 1 1 1 1 0 0 0 0 0 0 1 1 1 1 1 1 0 0 0 0 0 0 0 0 0 0 0 0 0 0 0 0 0 0 0 0 0 0 0 0 0 0 0 0 0 0 1 1 1 1 1 1 0 0 0 0 0 0 0 0 0 0 0 0 0 0 0 0 0 0 0 0 0 0 0 0 0 0 0 0 0 0 1 1 1 1 1 1 0 0 0 0 0 0 0 0 0 0 0 0 0 0 0 0 0 0 0 0 0 0 0 0 0 0 0 0 0 0 0 0 0 0 0 0 0 0 0 0 0 0 0 0 0 0 0 0 0 0 0 0 0 0 0 0 0 0 0 0 0 0 0 0 0 0 0 0 0 0 0 0 0 0 0 0 0 0 0 0 0 0 0 0 0 0 0 0 0 0 0 0 0 0 0 0 0 0 0 0 0 0 0 0 0 0 0 0 0 0 0 0 0 0 0 0 0 0 0 0 0 0 0 0 0 0 0 0 0 0 0 0 0 0 0 0 0 0 0 0 0 0 0 0 0 0 0 0 0 0 0 0 0 0 0 0 0 0 0 0 0 0 0 0 0 0 0 0 0 0 0 0 0 0 0 0 0 0 0 0 0 0 0 0 0 0 0 0 0 0 0 0 0 0 0 0 0 0 0 0 0 0 0 0 0 0 0 0 0 0 0 0 0 0 0 0 0 0 0 0 0 0 0 0 0 0 0 0 0 0 0 0 0 0 0 0 0 0 0 0 0 0 0 0 0 0 0 0 0 0 0 0 0 0 0 0 0 0 0 0 0 0 0 0 0 0 0 0 0 0 0 0 0 0 0 0 0 0 0 0 0 0 0 0 0 0 0 0 0 0 0 0 0 0 0 0 0 0 0 0 0 0 0 0 0 0 0 0 0 0 0 0 0 0 0 0 0 0 0 0 0 0 0 0 0 0 0 0 0 0 0 0 0 0 0 0 0 0 0 0 0 0 0 0 0 0 0 0 0 0 0 0 0 0 0 0 0 0 0 0 0 0 0 0 0 0 0 0 0 0 0 0 0 0 0 0 0 0 0 0 0 0 0 0 0 0 0 0 0 0 0 0 0 0 0 0 0 0 0 0 0 0 0 0 0 0 0 0 0 0 0 0 0 0 0 0 0 0 0 0 0 0 0 0 0 0 0 0 0 0 0 0 0 0 0 0 0 0 0 0 0 0 0 0 0 0 0 0 0 0 0 0 0 0 0 0 0 0 0 0 0 0 0 0 0 0 0 0 0 0 0 0 0 0 0 0 0 0 0 0 0 0 0 0 0 0 0 0 0 0 0 0 0 0 0 0 0 0 0 0 0 0 0 0 0 0 0 0 0 0 0 0 0 0 0 0 0 0 0 0 0 0 0 0 0 0 0 0 0 0 0 0 0 0 0 0 0 0 0 0 0 0 0 0 0 0 0 0 0 0 0 0 0 0 0 0 0 0 0 0 0 0 0 0 0 0 0 0 0 0 0 0 0 0 0 0 0 0 0 0 0 0 0 0 0 0 0 0 0 0 0 0 0 0 0 0 0 0 0 0 0 0 0 0 0 0 0 0 0 0 0 0 0 0 0 0 0 0 0 0 0 0 0 0 0 0 0 0 0 0 0 0 0 0 0 0 0 0 0 0 0 0 0 0 0 0 0 0 0 0 0 0 0 0 0 0 0 0 0 0 0 0 0 0 0 0 0 0 0 0 0 0 0 0 0 0 0 0 0 0 0 0 0 0 0 0 0 0 0 0 0 0 0 0 0 0 0 0 0 0 0 0 0 0 0 0 0 0 0 0 0 0 0 0 0 0 0 0 0 0 0 0 0 0 0 0 0 0 0 0 0 0 0 0 0 0 0 0 0 0 0 0 0 0 1 1 0 0 1 1 0 0 0 0 0 0 0 0 0 0 0 0 0 0 0 0 0 0 0 0 0 0 0 0 0 0 0 0 0 0 0 0 0 0 0 0 0 0 0 0 0 0 0 0 0 0 0 0 0 0 0 0 0 0 0 0 0 0 0 0 0 0 0 0 0 0 0 0 0 0 0 0 0 0 0 0 0 0 0 0 0 0 0 0 0 0 0 0 0 0 0 0 0 0 0 0 0 0 0 0 0 0 0 0 0 0 0 0 0 0 0 0 0 0 0 0 0 0 0 0 0 0 0 0 0 0 0 0 0 0 0 0 0 0 0 0 0 0 0 0 0 0 0 0 0 0 0 0 0 0 0 0 0 0 0 0 0 0 0 0 0 0 0 0 0 0 0 0 0 0 0 0 0 0 0 0 0 0 0 0 0 0 0 0 0 0 0 0 0 0 0 0 0 0 0 0 0 0 0 0 0 0 0 0 0 0 0 0 0 0 0 0 0 0 0 0 0 0 0 0 0 0 0 0 0 0 0 0 0 0 0 0 0 0 0 0 0 0 0 0 1 1 1 1 1 1 0 0 0 0 0 0 0 0 0 0 0 0 0 0 0 0 0 0 0 0 0 0 0 0 0 0 0 0 0 0 1 1 1 1 1 1 0 0 0 0 0 0 0 0 0 0 0 0 0 0 0 0 0 0 1 1 1 1 1 1 0 0 0 0 0 0 0 0 0 0 0 0 0 0 0 0 0 1 1 1 1 1 1 1 0 0 0 0 0 0 0 0 0 0 0 0 1 1 1 1 1 1 0 0 0 0 0 0 0 0 0 0 0 0 1 1 1 1 1 1 0 0 0 0 0 0 0 0 0 0 0 0 0 0 0 0 0 0 0 0 0 0 0 0 0 0 0 0 0 0 0 0 0 0 0 0 0 0 0 0 0 0 0 0 0 0 0 0 0 0 0 0 0 0 0 0 0 0 0 0 0 0 0 0 0 0 0 0 0 0 0 0 1 1 1 1 1 1 0 0 0 0 0 0 0 0 0 0 0 0 1 1 1 1 1 1 1 1 1 1 1 1 0 0 0 0 0 0 0 0 0 0 0 0 0 0 0 0 0 0 0 0 0 0 0 0 1 1 1 1 0 0 1 1 1 1 1 1 0 0 0 0 0 0 0 0 0 0 0 0 0 0 0 0 0 0 0 0 0 0 0 0 0 0 0 0 0 0 0 0 0 0 0 0 0 0 0 0 0 0 0 0 0 0 0 0 0 0 0 0 0 0 0 0 0 0 0 0 0 0 0 0 0 0 0 0 0 0 0 0 0 0 0 0 0 0 0 0 0 0 0 0 0 0 0 0 0 0 0 0 0 0 0 0 0 0 0 0 0 0 0 0 0 0 0 0 0 0 1 1 0 0 0 0 0 0 0 0 0 0 0 0 0 0 0 0 0 0 0 0 0 0 0 0 0 0 0 0 0 0 0 0 0 0 0 0 0 0 1 1 1 1 1 1 0 0 0 0 0 0 0 0 0 0 0 0 0 0 0 0 0 0 0 0 0 0 0 0 1 1 1 1 1 1 0 0 0 0 0 0 1 1 1 1 1 1 0 0 0 0 0 0 0 0 1 1 1 1 0 0 0 0 1 1 1 1 0 0 0 0 1 1 1 1 0 0 1 1 1 1 0 0 0 0 0 0 0 0 0 0 0 0 0 0 0 0 0 0 0 0 0 0 0 0 0 0 0 0 0 0 0 0 0 0 0 0 0 0 0 0 0 0 0 0 0 0 0 0 0 0 0 0 0 0 0 0 1 1 1 1 1 1 1 1 1 1 1 1 1 1 1 1 1 1 0 0 0 0 0 0 0 0 0 0 0 0 0 0 0 0 0 0 0 0 0 0 0 0 0 0 0 0 0 0 1 1 1 1 1 1 0 0 0 0 0 0 0 0 0 0 0 0 0 0 0 0 0 0 1 1 1 1 1 1 0 0 0 0 0 0 0 0 0 0 0 0 1 1 1 1 1 1 0 0 0 0 0 0 0 0 0 0 0 0 1 1 1 1 1 1 1 1 1 1 1 1 0 0 0 0 0 0 0 0 0 0 0 0 1 1 1 1 1 1 0 0 0 0 0 0 0 0 0 0 0 0 0 0 0 0 0 0 1 1 1 1 1 1 0 0 0 0 0 0 0 0 0 0 0 0 0 0 0 0 0 0 0 0 0 0 0 0 0 0 0 0 0 0 0 0 0 0 0 0 0 0 0 0 0 0 1 1 1 1 1 1 0 0 0 0 0 0 0 0 0 0 0 0 0 0 0 0 0 0 1 1 1 1 1 1 1 1 1 1 1 1 0 0 0 0 0 0 0 0 0 0 0 0 0 0 0 0 0 0 0 0 0 0 0 0 0 0 0 0 0 0 1 1 1 1 1 1 0 0 0 0 0 0 0 0 0 0 0 0 0 0 0 0 0 0 0 0 0 0 0 0 1 1 1 1 1 1 0 0 0 0 0 0 0 0 0 0 0 0 0 0 0 0 0 0 0 0 0 0 0 0 1 1 1 1 1 1 1 1 1 1 1 1 0 0 0 0 0 0 1 1 1 1 1 1 0 0 0 0 0 0 0 0 0 0 0 0 0 0 0 0 0 0 0 0 0 0 0 0 0 0 0 0 0 0 0 0 0 0 0 0 0 0 0 0 0 0 0 0 0 0 0 0 1 1 1 1 1 1 1 1 1 1 1 1 0 0 0 0 0 0 1 1 1 1 1 1 0 0 0 0 0 0 0 0 0 0 0 0 0 0 0 0 0 0 0 0 0 0 0 0 0 0 0 0 0 0 0 0 0 0 0 0 0 0 0 0 0 0 0 0 0 0 0 0 0 0 0 0 0 0 1 1 1 1 1 1 0 0 0 0 0 0 0 0 0 0 0 0 1 1 1 1 1 1 1 1 1 1 1 1 0 0 0 0 0 0 0 0 0 0 0 0 0 0 0 0 0 0 0 0 0 0 0 0 1 1 1 1 1 1 0 0 0 0 0 0 0 0 0 0 0 0 0 0 0 0 0 0 0 0 0 0 0 0 0 0 0 0 0 0 0 0 0 0 0 0 0 0 0 0 0 0 0 0 0 0 0 0 0 0 0 0 0 0 1 1 1 1 1 1 0 0 0 0 0 0 0 0 0 0 0 0 0 0 0 0 0 0 0 0 0 0 0 0 0 0 0 0 0 0 0 0 0 0 0 0 1 1 1 1 1 1 0 0 0 0 0 0 1 1 1 1 1 1 0 0 0 0 0 0 0 0 0 0 0 0 0 0 0 0 0 0 0 0 0 0 0 0 0 0 0 0 0 0 0 0 0 0 0 0 0 0 0 0 0 0 1 1 1 1 1 1 1 1 1 1 1 1 0 0 0 0 0 0 0 0 0 0 0 0 0 0 0 0 0 0 0 0 0 0 0 0 0 0 0 0 0 0 1 1 1 1 1 1 0 0 0 0 0 0 0 0 0 0 0 0 1 1 1 1 1 1 1 1 1 1 1 1 0 0 0 0 0 0 0 0 0 0 0 0 0 0 0 0 0 0 0 0 0 0 0 0 0 0 0 0 0 0 1 1 1 1 1 1 0 0 0 0 0 0 0 0 0 0 0 0 0 0 0 0 0 0 1 1 1 1 1 1 0 0 0 0 0 0 0 0 0 0 0 0 0 0 0 0 0 0 0 0 0 0 0 0 0 0 0 0 0 0 0 0 0 0 0 0 0 0 0 0 0 0 0 0 0 0 0 0 0 0 0 0 0 0 1 1 1 1 1 1 0 0 0 0 0 0 0 0 0 0 0 0 0 0 0 0 0 0 0 0 0 0 0 0 0 0 0 0 0 0 0 0 0 0 0 0 0 0 0 0 0 0 0 0 0 0 0 0 1 1 1 1 1 1 0 0 0 0 1 1 0 0 0 0 0 0 0 0 0 0 0 0 0 0 0 0 0 0 1 1 1 1 1 1 1 1 1 1 1 1 1 1 1 1 1 1 0 0 0 0 0 0 1 1 1 1 1 1 0 0 0 0 0 0 1 1 1 1 1 1 1 1 1 1 1 1 0 0 0 0 0 0 0 0 0 0 0 0 0 0 0 0 0 0 1 1 1 1 1 1 0 0 0 0 0 0 0 0 0 0 0 0 0 0 0 0 0 0 0 0 0 0 0 0 0 0 0 0 0 0 0 0 0 0 0 0 0 0 0 0 0 0 1 1 1 1 1 1 0 0 0 0 0 0 0 0 0 0 0 0 0 0 0 0 0 0 0 0 0 0 0 0 0 0 0 0 0 0 0 0 0 0 0 0 0 0 0 0 0 0 0 0 0 0 0 0 0 0 0 0 0 0 1 1 1 1 1 1 1 1 1 1 1 1 0 0 0 0 0 0 0 0 0 0 0 0 0 0 0 0 0 0 0 0 0 0 0 0 0 0 0 0 0 0 0 0 0 0 0 0 0 0 0 0 0 0 0 0 0 0 0 0 1 1 1 1 1 1 1 1 1 1 1 1 0 0 0 0 0 0 0 0 0 0 0 0 0 0 0 0 0 0 0 0 0 0 0 0 0 0 0 0 0 0 0 0 0 0 0 0 1 1 1 1 1 1 0 0 0 0 0 0 0 0 0 0 0 0 0 0 0 0 0 0 1 1 1 1 1 1 0 0 0 0 0 0 0 0 0 0 0 0 0 0 0 0 0 0 1 1 1 1 1 1 0 0 0 0 0 0 0 0 0 0 0 0 0 0 0 0 0 0 1 1 1 1 1 1 1 1 0 0 0 0 0 0 0 0 1 1 0 0 0 0 0 0 1 1 1 1 1 1 0 0 0 0 0 0 0 0 0 0 1 1 0 0 0 0 0 0 0 0 0 0 0 0 0 0 0 0 0 0 0 0 0 0 0 0 1 1 1 1 0 0 1 1 1 1 1 1 1 1 1 1 1 1 1 1 1 1 0 0 0 0 0 0 0 0 0 0 0 0 0 0 1 1 1 1 1 1 0 0 0 0 0 0 0 0 0 0 1 1 0 0 0 0 0 0 0 0 0 0 0 0 1 1 1 1 1 1 0 0 0 0 0 0 1 1 1 1 1 1 0 0 0 0 0 0 0 0 0 0 1 1 1 1 1 1 1 1 1 1 1 1 1 1 1 1 1 1 1 1 0 0 0 0 0 0 0 0 0 0 0 0 1 0 1 1 0.9500001 1 0.9500001 0 0.9500001 1 0 1 1 1 1 1 0.9500001 1 1 1 1 1 0.9500001 1 1 1 1 1 1 1 1 1 1 1 1 1 1 1 1 1 1 1 1 1 1 1 1 1 1 1 1 1 1 1 1 1 1 1 1 1 0 0 0 1 0 1 0 1 0 1 0 1 0 1 0 1 0 1 1 1 1 1 1 1 1 1 1 1 1 1 1 1 1 1 1 1 1 1 1 1 1 1 0 0 0 0 0 0 0 0 0 0 0 0 1 1 1 1 1 1 1 1 1 1 1 1 1 1 1 1 1 1 1 1 1 1 1 1 0 0 1 1 1 1 0 0 0 0 1 1 1 1 0 0 0 0 1 1 1 1 0 0 1 1 1 1 0 0 0 0 0 0 0 0 0 0 0 0 0 0 0 0 0 0 0 0 0 0 0 0 0 0 0 0 0 0 0 0 0 0 0 0 0 0 0 0 0 0 0 0 0 0 0 0 0 0 0 0 0 0 0 0 0 0 0 0 0 0 0 0 0 0 0 0 0 0 0 0 0 0 1 1 1 1 1 1 0 0 0 0 0 0 0 0 0 0 0 0 0 0 0 0 0 0 0 0 0 0 0 0 1 1 1 1 1 1 0 0 0 0 0 0 0 0 0 0 0 0 0 0 0 0 0 0 1 1 1 1 1 1 0 0 0 0 0 0 0 0 0 0 0 0 0 0 0 0 0 0 1 1 1 1 1 1 0 0 0 0 0 0 0 0 0 0 0 0 0 0 0 0 0 0 0 0 0 0 0 0 0 0 0 0 0 0 0 0 0 0 0 0 0 0 0 0 0 0 0 0 0 0 0 0 1 1 1 1 1 1 0 0 0 0 0 0 0 0 0 0 0 0 0 0 0 0 0 0 1 1 1 1 1 1 0 0 0 0 0 0 1 1 1 1 1 1 0 0 0 0 0 0 0 0 0 0 0 0 0 0 0 0 0 0 1 1 1 1 1 1 0 0 0 0 0 0 1 1 1 1 1 1 0 0 0 0 0 0 0 0 0 0 0 0 0 0 0 0 0 0 0 0 0 0 0 0 0 0 0 0 0 0 1 1 1 1 1 1 0 0 0 0 0 0 0 0 0 0 0 0 0 0 0 0 0 0 0 0 0 0 0 0 0 0 0 0 0 0 1 1 1 1 1 1 0 0 0 0 0 0 0 0 0 0 0 0 0 0 0 0 0 0 0 0 0 0 0 0 0 0 0 0 0 0 0 0 0 0 0 0 0 0 0 0 0 0 0 0 0 0 0 0 0 0 0 0 0 0 0 0 0 0 0 0 0 0 0 0 0 0 0 0 0 0 0 0 0 0 0 0 0 0 0 0 0 0 0 0 0 0 0 0 0 0 0 0 0 0 0 0 0 0 0 0 0 0 0 0 0 0 0 0 0 0 0 0 0 0 0 0 0 0 0 0 0 0 0 0 0 0 0 0 0 0 0 0 0 0 0 0 0 0 0 0 0 0 0 0 0 0 0 0 0 0 0 0 0 0 0 0 0 0 0 0 0 0 0 0 0 0 0 0 0 0 0 0 0 0 0 0 0 0 0 0 0 0 0 0 0 0 0 0 0 0 0 0 0 0 0 0 0 0 0 0 0 0 0 0 0 0 0 0 0 0 0 0 0 0 0 0 0 0 0 0 0 0 0 0 0 0 0 0 0 0 0 0 0 0 0 0 0 0 0 0 0 0 0 0 0 0 0 0 0 0 0 0 0 0 0 0 0 0 0 0 0 0 0 0 0 0 0 0 0 0 0 0 0 0 0 0 0 0 0 0 0 0 0 0 0 0 0 0 0 0 0 0 0 0 0 0 0 0 0 0 0 0 0 0 0 0 0 0 0 0 0 0 0 0 0 0 0 0 0 0 0 0 0 0 0 0 0 0 0 0 0 0 0 0 0 0 0 0 0 0 0 0 0 0 0 0 0 0 0 0 0 0 0 0 0 0 0 0 0 0 0 0 0 0 0 0 0 0 0 0 0 0 0 0 0 0 0 0 0 0 0 0 0 0 0 0 0 0 0 0 0 0 0 0 0 0 0 0 0 0 0 0 0 0 0 0 0 0 0 0 0 0 0 0 0 0 0 0 0 0 0 0 0 0 0 0 0 0 0 0 0 0 0 0 0 0 0 0 0 0 0 0 0 0 0 0 0 0 0 0 0 0 0 0 0 0 0 0 0 0 0 0 0 0 0 0 0 0 0 0 0 0 0 0 0 0 0 0 0 0 0 0 0 0 0 0 0 0 0 0 0 0 0 0 0 0 0 0 0 0 0 0 0 0 0 0 0 0 0 0 0 0 0 0 0 0 0 0 0 0 0 0 0 0 0 0 0 0 0 0 0 0 0 0 0 0 0 0 0 0 0 0 0 0 0 0 0 0 0 0 0 0 0 0 0 0 0 0 0 0 0 0 0 0 0 0 0 0 0 0 0 0 0 0 0 0 0 0 0 0 0 0 0 0 0 0 0 0 0 0 0 0 0 0 0 0 0 0 0 0 0 0 0 0 0 0 0 0 0 0 0 0 0 0 0 0 0 0 0 0 0 0 0 0 0 0 0 0 0 0 0 0 0 0 0 0 0 0 0 0 0 0 0 0 0 0 0 0 0 0 0 0 0 0 0 0 0 0 0 0 0 0 0 0 0 0 0 0 0 0 0 0 0 0 0 0 0 0 0 0 0 0 0 0 0 0 0 0 0 0 0 0 0 0 0 0 0 0 0 0 0 0 0 0 0 0 0 0 0 0 0 0 0 0 0 0 0 0 0 0 0 0 0 0 0 0 0 0 0 0 0 0 0 0 0 0 0 0 0 0 0 0 0 0 1 1 0 0 0 0 0 0 0 0 0 0 0 0 0 0 0 0 0 0 0 0 0 0 0 0 0 0 0 0 0 0 0 0 0 0 0 0 0 0 0 0 0 0 0 0 0 0 0 0 0 0 0 0 0 0 0 0 0 0 0 0 0 0 0 0 0 0 0 0 0 0 0 0 0 0 0 0 0 0 0 0 0 0 0 0 0 0 0 0 0 0 0 0 0 0 0 0 0 0 0 0 0 0 0 0 0 0 0 0 0 0 0 0 0 0 0 0 0 0 0 0 0 0 0 0 0 0 0 0 0 0 0 0 0 0 0 0 0 0 0 0 0 0 0 0 0 0 0 0 0 0 0 0 0 0 0 0 0 0 0 0 0 0 0 0 0 0 0 0 0 0 0 0 0 0 0 0 0 0 0 0 0 0 0 0 0 0 0 0 0 0 0 0 0 0 0 0 0 0 0 0 0 0 0 0 0 0 0 0 0 0 0 0 0 0 0 0 0 0 0 0</float_array>
          <technique_common>
            <accessor source="#Plane-mesh-map-0-array" count="3549" stride="2">
              <param name="S" type="float"/>
              <param name="T" type="float"/>
            </accessor>
          </technique_common>
        </source>
        <vertices id="Plane-mesh-vertices">
          <input semantic="POSITION" source="#Plane-mesh-positions"/>
        </vertices>
        <lines count="23">
          <input semantic="VERTEX" source="#Plane-mesh-vertices" offset="0"/>
          <p>146 226 59 134 227 145 134 213 226 309 310 227 309 392 392 405 406 195 399 407 401 279 457 534 668 651 686 683 668 683 702 685 703 695 326 352 365 343 334 329 354 803 321 826 827 326</p>
        </lines>
        <triangles material="Material_002-material" count="1183">
          <input semantic="VERTEX" source="#Plane-mesh-vertices" offset="0"/>
          <input semantic="NORMAL" source="#Plane-mesh-normals" offset="1"/>
          <input semantic="TEXCOORD" source="#Plane-mesh-map-0" offset="2" set="0"/>
          <p>68 0 0 136 0 1 52 0 2 17 1 3 89 1 4 13 1 5 57 2 6 143 2 7 69 2 8 16 3 9 92 3 10 14 3 11 35 4 12 12 4 13 34 4 14 45 5 15 117 5 16 43 5 17 69 6 18 144 6 19 68 6 20 33 7 21 79 7 22 28 7 23 66 8 24 137 8 25 58 8 26 11 9 27 93 9 28 16 9 29 381 10 30 505 10 31 380 10 32 32 11 33 106 11 34 30 11 35 60 12 36 141 12 37 67 12 38 14 13 39 91 13 40 15 13 41 37 14 42 34 14 43 38 14 44 31 15 45 108 15 46 33 15 47 67 16 48 142 16 49 66 16 50 803 17 51 461 17 52 490 17 53 409 18 54 523 18 55 420 18 56 65 19 57 138 19 58 64 19 59 30 20 60 105 20 61 31 20 62 10 21 63 90 21 64 12 21 65 333 22 66 478 22 67 340 22 68 64 23 69 139 23 70 62 23 71 13 24 72 86 24 73 11 24 74 355 25 75 466 25 76 326 25 77 29 26 78 75 26 79 0 26 80 6 27 81 88 27 82 36 27 83 28 28 84 81 28 85 5 28 86 86 29 87 172 29 88 93 29 89 108 30 90 158 30 91 79 30 92 129 31 93 207 31 94 128 31 95 120 32 96 229 32 97 148 32 98 92 33 99 170 33 100 91 33 101 107 34 102 185 34 103 106 34 104 127 35 105 205 35 106 126 35 107 148 36 108 228 36 109 147 36 110 87 37 111 169 37 112 90 37 113 105 38 114 187 38 115 108 38 116 125 39 117 203 39 118 124 39 119 89 40 120 165 40 121 86 40 122 123 41 123 196 41 124 119 41 125 753 42 126 769 42 127 768 42 128 82 43 129 167 43 130 88 43 131 106 44 132 184 44 133 105 44 134 117 45 135 201 45 136 123 45 137 411 46 138 520 46 139 421 46 140 86 47 141 166 47 142 87 47 143 119 48 144 200 48 145 122 48 146 144 49 147 215 49 148 136 49 149 80 50 150 154 50 151 75 50 152 135 51 153 224 51 154 143 51 155 49 52 156 124 52 157 47 52 158 70 53 159 145 53 160 71 53 161 46 54 162 126 54 163 48 54 164 18 55 165 95 55 166 19 55 167 51 56 168 128 56 169 50 56 170 36 57 171 109 57 172 39 57 173 15 58 174 97 58 175 20 58 176 0 59 177 74 59 178 2 59 179 642 60 180 639 60 181 640 60 182 1 61 183 76 61 184 4 61 185 72 62 186 147 62 187 73 62 188 53 63 189 129 63 190 51 63 191 20 64 192 96 64 193 18 64 194 3 65 195 77 65 196 1 65 197 368 66 198 497 66 199 366 66 200 620 67 201 624 67 202 621 67 203 21 68 204 94 68 205 17 68 206 73 69 207 123 69 208 45 69 209 292 70 210 450 70 211 304 70 212 4 71 213 80 71 214 29 71 215 54 72 216 133 72 217 60 72 218 38 73 219 112 73 220 37 73 221 22 74 222 99 74 223 23 74 224 293 75 225 707 75 226 387 75 227 39 76 228 113 76 229 38 76 230 19 77 231 101 77 232 24 77 233 52 78 234 135 78 235 57 78 236 616 79 237 620 79 238 621 79 239 23 80 240 102 80 241 25 80 242 7 81 243 82 81 244 6 81 245 707 82 246 709 82 247 708 82 248 24 83 249 100 83 250 22 83 251 5 84 252 84 84 253 8 84 254 58 85 255 135 85 256 57 85 257 620 86 258 619 86 259 617 86 260 25 87 261 98 87 262 21 87 263 8 88 264 83 88 265 7 88 266 617 89 267 623 89 268 620 89 269 9 90 270 78 90 271 3 90 272 43 91 273 116 91 274 42 91 275 26 92 276 99 92 277 23 92 278 25 93 279 104 93 280 27 93 281 11 94 282 87 94 283 10 94 284 42 95 285 119 95 286 44 95 287 223 96 288 299 96 289 216 96 290 180 97 291 264 97 292 179 97 293 199 98 294 278 98 295 193 98 296 212 99 297 305 99 298 222 99 299 178 100 300 266 100 301 181 100 302 222 101 303 306 101 304 223 101 305 155 102 306 244 102 307 159 102 308 174 103 309 265 103 310 180 103 311 197 104 312 281 104 313 196 104 314 715 105 315 503 105 316 717 105 317 179 106 318 263 106 319 178 106 320 194 107 321 280 107 322 195 107 323 219 108 324 303 108 325 220 108 326 157 109 327 241 109 328 156 109 329 193 110 330 279 110 331 194 110 332 217 111 333 295 111 334 212 111 335 156 112 336 240 112 337 155 112 338 177 113 339 258 113 340 173 113 341 217 114 342 301 114 343 218 114 344 154 115 345 238 115 346 153 115 347 176 116 348 260 116 349 175 116 350 233 117 351 315 117 352 232 117 353 190 118 354 274 118 355 189 118 356 147 119 357 201 119 358 123 119 359 130 120 360 208 120 361 129 120 362 88 121 363 188 121 364 109 121 365 93 122 366 171 122 367 92 122 368 725 123 369 722 123 370 720 123 371 110 124 372 164 124 373 85 124 374 94 125 375 168 125 376 89 125 377 131 126 378 212 126 379 133 126 380 712 127 381 451 127 382 455 127 383 112 128 384 190 128 385 111 128 386 96 129 387 174 129 388 95 129 389 136 130 390 214 130 391 135 130 392 113 131 393 191 131 394 112 131 395 1 132 396 150 132 397 3 132 398 91 133 399 176 133 400 97 133 401 717 134 402 451 134 403 455 134 404 109 135 405 192 135 406 113 135 407 137 136 408 214 136 409 135 136 410 111 137 411 189 137 412 110 137 413 97 138 414 175 138 415 96 138 416 75 139 417 153 139 418 74 139 419 98 140 420 173 140 421 94 140 422 77 141 423 155 141 424 76 141 425 114 142 426 194 142 427 115 142 428 78 143 429 156 143 430 77 143 431 100 144 432 178 144 433 99 144 434 95 145 435 180 145 436 101 145 437 76 146 438 159 146 439 80 146 440 115 147 441 195 147 442 118 147 443 99 148 444 181 148 445 102 148 446 138 149 447 220 149 448 139 149 449 116 150 450 196 150 451 119 150 452 101 151 453 179 151 454 100 151 455 140 152 456 219 152 457 138 152 458 102 153 459 177 153 460 98 153 461 83 154 462 161 154 463 82 154 464 141 155 465 223 155 466 142 155 467 121 156 468 193 156 469 114 156 470 81 157 471 163 157 472 84 157 473 133 158 474 222 158 475 141 158 476 10 159 477 151 159 478 11 159 479 103 160 480 178 160 481 99 160 482 142 161 483 216 161 484 137 161 485 102 162 486 183 162 487 104 162 488 84 163 489 162 163 490 83 163 491 143 164 492 225 164 493 144 164 494 79 165 495 160 165 496 81 165 497 85 166 498 157 166 499 78 166 500 206 167 501 232 167 502 205 167 503 204 168 504 230 168 505 203 168 506 302 169 507 386 169 508 303 169 509 241 170 510 323 170 511 240 170 512 262 171 513 341 171 514 258 171 515 300 172 516 378 172 517 295 172 518 239 173 519 321 173 520 238 173 521 261 174 522 343 174 523 260 174 524 275 175 525 357 175 526 274 175 527 300 176 528 384 176 529 301 176 530 236 177 531 320 177 532 237 177 533 273 178 534 360 178 535 277 178 536 234 179 537 318 179 538 235 179 539 255 180 540 344 180 541 261 180 542 277 181 543 359 181 544 276 181 545 260 182 546 342 182 547 259 182 548 276 183 549 358 183 550 275 183 551 296 184 552 383 184 553 300 184 554 299 185 555 380 185 556 297 185 557 258 186 558 336 186 559 253 186 560 274 187 561 332 187 562 249 187 563 746 188 564 743 188 565 728 188 566 257 189 567 339 189 568 256 189 569 252 190 570 356 190 571 273 190 572 298 191 573 380 191 574 297 191 575 716 192 576 722 192 577 721 192 578 181 193 579 262 193 580 177 193 581 162 194 582 246 194 583 161 194 584 224 195 585 308 195 586 225 195 587 160 196 588 248 196 589 163 196 590 214 197 591 307 197 592 224 197 593 182 198 594 263 198 595 178 198 596 225 199 597 298 199 598 215 199 599 181 200 600 268 200 601 183 200 602 163 201 603 247 201 604 162 201 605 196 202 606 285 202 607 200 202 608 158 203 609 245 203 610 160 203 611 164 204 612 242 204 613 157 204 614 202 205 615 286 205 616 201 205 617 159 206 618 239 206 619 154 206 620 229 207 621 311 207 622 228 207 623 201 208 624 281 208 625 196 208 626 165 209 627 251 209 628 166 209 629 198 210 630 312 210 631 229 210 632 203 211 633 289 211 634 204 211 635 185 212 636 269 212 637 184 212 638 161 213 639 252 213 640 167 213 641 228 214 642 286 214 643 201 214 644 168 215 645 250 215 646 165 215 647 208 216 648 290 216 649 207 216 650 184 217 651 272 217 652 187 217 653 166 218 654 254 218 655 169 218 656 454 219 657 503 219 658 451 219 659 186 220 660 270 220 661 185 220 662 171 221 663 255 221 664 170 221 665 719 222 666 292 222 667 720 222 668 187 223 669 243 223 670 158 223 671 165 224 672 257 224 673 172 224 674 211 225 675 295 225 676 212 225 677 715 226 678 722 226 679 132 226 680 167 227 681 273 227 682 188 227 683 172 228 684 256 228 685 171 228 686 215 229 687 297 229 688 214 229 689 123 230 690 237 230 691 147 230 692 189 231 693 249 231 694 164 231 695 173 232 696 253 232 697 168 232 698 725 233 699 724 233 700 726 233 701 92 234 702 235 234 703 93 234 704 216 235 705 297 235 706 214 235 707 191 236 708 275 236 709 190 236 710 175 237 711 259 237 712 174 237 713 213 238 714 300 238 715 217 238 716 192 239 717 276 239 718 191 239 719 170 240 720 261 240 721 176 240 722 188 241 723 277 241 724 192 241 725 231 242 726 313 242 727 230 242 728 339 243 729 476 243 730 338 243 731 354 244 732 489 244 733 353 244 734 411 245 735 519 245 736 412 245 737 352 246 738 491 246 739 355 246 740 412 247 741 517 247 742 410 247 743 336 248 744 475 248 745 333 248 746 409 249 747 518 249 748 411 249 749 329 250 750 473 250 751 335 250 752 353 251 753 488 251 754 352 251 755 410 252 756 516 252 757 409 252 758 419 253 759 516 253 760 409 253 761 13 254 762 442 254 763 12 254 764 528 255 765 460 255 766 527 255 767 749 256 768 742 256 769 727 256 770 363 257 771 404 257 772 367 257 773 327 258 774 462 258 775 322 258 776 369 259 777 502 259 778 364 259 779 420 260 780 518 260 781 411 260 782 332 261 783 465 261 784 325 261 785 63 262 786 456 262 787 62 262 788 326 263 789 468 263 790 328 263 791 278 264 792 362 264 793 279 264 794 242 265 795 324 265 796 241 265 797 719 266 798 725 266 799 726 266 800 264 267 801 346 267 802 263 267 803 305 268 804 389 268 805 306 268 806 259 269 807 348 269 808 265 269 809 240 270 810 327 270 811 244 270 812 295 271 813 388 271 814 305 271 815 263 272 816 349 272 817 266 272 818 306 273 819 382 273 820 299 273 821 284 274 822 361 274 823 278 274 824 265 275 825 347 275 826 264 275 827 307 276 828 391 276 829 308 276 830 266 277 831 345 277 832 262 277 833 247 278 834 329 278 835 246 278 836 297 279 837 390 279 838 307 279 839 245 280 840 331 280 841 248 280 842 308 281 843 381 281 844 298 281 845 267 282 846 346 282 847 263 282 848 266 283 849 351 283 850 268 283 851 248 284 852 330 284 853 247 284 854 281 285 855 368 285 856 285 285 857 243 286 858 328 286 859 245 286 860 249 287 861 325 287 862 242 287 863 312 288 864 393 288 865 311 288 866 287 289 867 369 289 868 286 289 869 244 290 870 322 290 871 239 290 872 283 291 873 394 291 874 312 291 875 286 292 876 364 292 877 281 292 878 250 293 879 334 293 880 251 293 881 311 294 882 369 294 883 286 294 884 288 295 885 372 295 886 289 295 887 270 296 888 352 296 889 269 296 890 246 297 891 335 297 892 252 297 893 314 298 894 395 298 895 313 298 896 291 299 897 373 299 898 290 299 899 253 300 900 333 300 901 250 300 902 316 301 903 397 301 904 315 301 905 716 302 906 375 302 907 718 302 908 269 303 909 355 303 910 272 303 911 251 304 912 337 304 913 254 304 914 745 305 915 747 305 916 748 305 917 271 306 918 353 306 919 270 306 920 256 307 921 338 307 922 255 307 923 294 308 924 378 308 925 295 308 926 272 309 927 326 309 928 243 309 929 250 310 930 340 310 931 257 310 932 367 311 933 402 311 934 361 311 935 361 312 936 401 312 937 362 312 938 279 313 939 404 313 940 363 313 941 310 314 942 416 314 943 405 314 944 12 315 945 440 315 946 10 315 947 279 316 948 412 316 949 400 316 950 280 317 951 411 317 952 279 317 953 408 318 954 409 318 955 280 318 956 404 319 957 418 319 958 363 319 959 402 320 960 414 320 961 404 320 962 400 321 963 410 321 964 408 321 965 279 322 966 413 322 967 402 322 968 403 323 969 414 323 970 404 323 971 409 324 972 420 324 973 411 324 974 411 325 975 421 325 976 413 325 977 413 326 978 422 326 979 414 326 980 414 327 981 424 327 982 418 327 983 415 328 984 422 328 985 414 328 986 393 329 987 501 329 988 369 329 989 421 330 990 426 330 991 411 330 992 424 331 993 429 331 994 422 331 995 422 332 996 428 332 997 421 332 998 420 333 999 425 333 1000 409 333 1001 429 334 1002 434 334 1003 428 334 1004 427 335 1005 431 335 1006 425 335 1007 430 336 1008 435 336 1009 429 336 1010 428 337 1011 432 337 1012 426 337 1013 433 338 1014 437 338 1015 431 338 1016 441 339 1017 440 339 1018 442 339 1019 444 340 1020 445 340 1021 446 340 1022 748 341 1023 744 341 1024 745 341 1025 730 342 1026 736 342 1027 735 342 1028 464 343 1029 468 343 1030 463 343 1031 463 344 1032 466 344 1033 467 344 1034 472 345 1035 470 345 1036 471 345 1037 465 346 1038 471 346 1039 468 346 1040 478 347 1041 476 347 1042 477 347 1043 475 348 1044 479 348 1045 478 348 1046 483 349 1047 481 349 1048 482 349 1049 479 350 1050 482 350 1051 476 350 1052 486 351 1053 484 351 1054 485 351 1055 480 352 1056 487 352 1057 486 352 1058 467 353 1059 461 353 1060 462 353 1061 491 354 1062 489 354 1063 490 354 1064 466 355 1065 490 355 1066 461 355 1067 469 356 1068 493 356 1069 473 356 1070 494 357 1071 496 357 1072 492 357 1073 493 358 1074 492 358 1075 473 358 1076 497 359 1077 502 359 1078 501 359 1079 756 360 1080 763 360 1081 758 360 1082 762 361 1083 755 361 1084 756 361 1085 507 362 1086 510 362 1087 509 362 1088 506 363 1089 512 363 1090 505 363 1091 501 364 1092 515 364 1093 497 364 1094 516 365 1095 519 365 1096 518 365 1097 521 366 1098 523 366 1099 522 366 1100 423 367 1101 524 367 1102 419 367 1103 733 368 1104 741 368 1105 734 368 1106 335 369 1107 492 369 1108 356 369 1109 340 370 1110 477 370 1111 339 370 1112 424 371 1113 525 371 1114 423 371 1115 751 372 1116 753 372 1117 754 372 1118 357 373 1119 472 373 1120 332 373 1121 341 374 1122 474 374 1123 336 374 1124 744 375 1125 730 375 1126 727 375 1127 755 376 1128 751 376 1129 752 376 1130 359 377 1131 494 377 1132 358 377 1133 343 378 1134 480 378 1135 342 378 1136 360 379 1137 495 379 1138 359 379 1139 338 380 1140 482 380 1141 344 380 1142 737 381 1143 740 381 1144 738 381 1145 356 382 1146 496 382 1147 360 382 1148 751 383 1149 761 383 1150 752 383 1151 358 384 1152 493 384 1153 357 384 1154 344 385 1155 481 385 1156 343 385 1157 322 386 1158 461 386 1159 321 386 1160 345 387 1161 479 387 1162 341 387 1163 57 388 1164 449 388 1165 52 388 1166 324 389 1167 463 389 1168 323 389 1169 41 390 1170 619 390 1171 618 390 1172 526 391 1173 457 391 1174 529 391 1175 25 392 1176 444 392 1177 23 392 1178 737 393 1179 736 393 1180 734 393 1181 325 394 1182 464 394 1183 324 394 1184 388 395 1185 511 395 1186 389 395 1187 347 396 1188 484 396 1189 346 396 1190 378 397 1191 510 397 1192 388 397 1193 342 398 1194 486 398 1195 348 398 1196 323 399 1197 467 399 1198 327 399 1199 389 400 1200 507 400 1201 382 400 1202 346 401 1203 487 401 1204 349 401 1205 616 402 1206 626 402 1207 617 402 1208 26 403 1209 445 403 1210 27 403 1211 390 404 1212 513 404 1213 391 404 1214 367 405 1215 498 405 1216 363 405 1217 348 406 1218 485 406 1219 347 406 1220 23 407 1221 446 407 1222 26 407 1223 380 408 1224 512 408 1225 390 408 1226 349 409 1227 483 409 1228 345 409 1229 330 410 1230 469 410 1231 329 410 1232 27 411 1233 443 411 1234 25 411 1235 391 412 1236 506 412 1237 381 412 1238 10 413 1239 439 413 1240 11 413 1241 421 414 1242 521 414 1243 422 414 1244 328 415 1245 471 415 1246 331 415 1247 394 416 1248 514 416 1249 393 416 1250 743 417 1251 729 417 1252 728 417 1253 366 418 1254 515 418 1255 394 418 1256 11 419 1257 441 419 1258 13 419 1259 422 420 1260 522 420 1261 424 420 1262 364 421 1263 500 421 1264 368 421 1265 733 422 1266 737 422 1267 738 422 1268 331 423 1269 470 423 1270 330 423 1271 117 424 1272 529 424 1273 116 424 1274 119 425 1275 527 425 1276 123 425 1277 529 426 1278 502 426 1279 534 426 1280 534 427 1281 501 427 1282 502 427 1283 526 428 1284 501 428 1285 458 428 1286 541 429 1287 543 429 1288 539 429 1289 532 430 1290 542 430 1291 538 430 1292 538 431 1293 541 431 1294 537 431 1295 530 432 1296 540 432 1297 532 432 1298 537 433 1299 539 433 1300 530 433 1301 545 434 1302 547 434 1303 543 434 1304 539 435 1305 544 435 1306 540 435 1307 540 436 1308 546 436 1309 542 436 1310 542 437 1311 545 437 1312 541 437 1313 543 438 1314 548 438 1315 544 438 1316 533 439 1317 551 439 1318 535 439 1319 550 440 1320 553 440 1321 551 440 1322 526 441 1323 555 441 1324 527 441 1325 552 442 1326 557 442 1327 553 442 1328 531 443 1329 370 443 1330 536 443 1331 556 444 1332 555 444 1333 557 444 1334 547 445 1335 364 445 1336 548 445 1337 547 446 1338 556 446 1339 557 446 1340 572 447 1341 574 447 1342 570 447 1343 573 448 1344 574 448 1345 575 448 1346 558 449 1347 569 449 1348 570 449 1349 574 450 1350 569 450 1351 575 450 1352 572 451 1353 567 451 1354 571 451 1355 592 452 1356 597 452 1357 580 452 1358 578 453 1359 601 453 1360 584 453 1361 577 454 1362 593 454 1363 576 454 1364 580 455 1365 599 455 1366 582 455 1367 583 456 1368 602 456 1369 585 456 1370 576 457 1371 597 457 1372 580 457 1373 562 458 1374 576 458 1375 563 458 1376 567 459 1377 584 459 1378 571 459 1379 558 460 1380 580 460 1381 566 460 1382 560 461 1383 586 461 1384 574 461 1385 569 462 1386 587 462 1387 575 462 1388 570 463 1389 592 463 1390 558 463 1391 562 464 1392 581 464 1393 565 464 1394 573 465 1395 589 465 1396 560 465 1397 624 466 1398 610 466 1399 594 466 1400 575 467 1401 590 467 1402 573 467 1403 568 468 1404 586 468 1405 574 468 1406 611 469 1407 588 469 1408 613 469 1409 563 470 1410 580 470 1411 566 470 1412 612 471 1413 595 471 1414 564 471 1415 570 472 1416 585 472 1417 572 472 1418 619 473 1419 612 473 1420 613 473 1421 566 474 1422 582 474 1423 569 474 1424 602 475 1425 561 475 1426 601 475 1427 603 476 1428 602 476 1429 600 476 1430 603 477 1431 607 477 1432 604 477 1433 599 478 1434 609 478 1435 600 478 1436 599 479 1437 603 479 1438 604 479 1439 595 480 1440 602 480 1441 601 480 1442 589 481 1443 603 481 1444 586 481 1445 582 482 1446 604 482 1447 587 482 1448 583 483 1449 609 483 1450 592 483 1451 577 484 1452 598 484 1453 581 484 1454 590 485 1455 606 485 1456 589 485 1457 611 486 1458 594 486 1459 593 486 1460 587 487 1461 607 487 1462 590 487 1463 579 488 1464 603 488 1465 586 488 1466 616 489 1467 608 489 1468 614 489 1469 613 490 1470 610 490 1471 611 490 1472 599 491 1473 622 491 1474 604 491 1475 639 492 1476 635 492 1477 640 492 1478 638 493 1479 639 493 1480 636 493 1481 638 494 1482 628 494 1483 637 494 1484 684 495 1485 692 495 1486 686 495 1487 645 496 1488 663 496 1489 646 496 1490 655 497 1491 669 497 1492 653 497 1493 647 498 1494 674 498 1495 659 498 1496 659 499 1497 673 499 1498 658 499 1499 658 500 1500 663 500 1501 646 500 1502 632 501 1503 656 501 1504 631 501 1505 636 502 1506 648 502 1507 638 502 1508 643 503 1509 654 503 1510 633 503 1511 636 504 1512 660 504 1513 643 504 1514 635 505 1515 647 505 1516 640 505 1517 641 506 1518 646 506 1519 639 506 1520 642 507 1521 658 507 1522 641 507 1523 640 508 1524 659 508 1525 642 508 1526 628 509 1527 653 509 1528 637 509 1529 627 510 1530 646 510 1531 639 510 1532 630 511 1533 654 511 1534 633 511 1535 629 512 1536 644 512 1537 634 512 1538 667 513 1539 692 513 1540 675 513 1541 667 514 1542 680 514 1543 665 514 1544 672 515 1545 688 515 1546 671 515 1547 649 516 1548 661 516 1549 644 516 1550 657 517 1551 671 517 1552 656 517 1553 650 518 1554 665 518 1555 648 518 1556 650 519 1557 675 519 1558 660 519 1559 678 520 1560 691 520 1561 679 520 1562 684 521 1563 678 521 1564 679 521 1565 678 522 1566 680 522 1567 682 522 1568 687 523 1569 680 523 1570 685 523 1571 673 524 1572 678 524 1573 663 524 1574 674 525 1575 690 525 1576 673 525 1577 664 526 1578 691 526 1579 674 526 1580 670 527 1581 685 527 1582 669 527 1583 662 528 1584 678 528 1585 663 528 1586 666 529 1587 676 529 1588 661 529 1589 679 530 1590 705 530 1591 691 530 1592 686 531 1593 697 531 1594 688 531 1595 677 532 1596 701 532 1597 680 532 1598 703 533 1599 680 533 1600 702 533 1601 700 534 1602 687 534 1603 699 534 1604 679 535 1605 702 535 1606 684 535 1607 689 536 1608 699 536 1609 691 536 1610 689 537 1611 697 537 1612 698 537 1613 766 538 1614 757 538 1615 765 538 1616 752 539 1617 768 539 1618 755 539 1619 759 540 1620 765 540 1621 761 540 1622 759 541 1623 763 541 1624 764 541 1625 451 542 1626 379 542 1627 742 542 1628 729 543 1629 766 543 1630 739 543 1631 321 544 1632 324 544 1633 322 544 1634 328 545 1635 329 545 1636 325 545 1637 384 546 1638 349 546 1639 345 546 1640 347 547 1641 772 547 1642 771 547 1643 348 548 1644 353 548 1645 354 548 1646 338 549 1647 773 549 1648 774 549 1649 333 550 1650 330 550 1651 334 550 1652 778 551 1653 334 551 1654 777 551 1655 770 552 1656 781 552 1657 779 552 1658 339 553 1659 778 553 1660 776 553 1661 774 554 1662 334 554 1663 360 554 1664 771 555 1665 344 555 1666 343 555 1667 770 556 1668 778 556 1669 775 556 1670 343 557 1671 781 557 1672 771 557 1673 781 558 1674 347 558 1675 771 558 1676 594 559 1677 783 559 1678 624 559 1679 695 560 1680 786 560 1681 701 560 1682 695 561 1683 784 561 1684 694 561 1685 448 562 1686 788 562 1687 614 562 1688 549 563 1689 789 563 1690 529 563 1691 282 564 1692 790 564 1693 546 564 1694 546 565 1695 531 565 1696 536 565 1697 531 566 1698 792 566 1699 549 566 1700 556 567 1701 793 567 1702 794 567 1703 693 568 1704 796 568 1705 696 568 1706 615 569 1707 797 569 1708 798 569 1709 219 570 1710 800 570 1711 799 570 1712 57 571 1713 801 571 1714 56 571 1715 737 572 1716 804 572 1717 384 572 1718 804 573 1719 807 573 1720 806 573 1721 110 574 1722 809 574 1723 114 574 1724 808 575 1725 811 575 1726 809 575 1727 324 576 1728 813 576 1729 329 576 1730 61 577 1731 814 577 1732 55 577 1733 815 578 1734 816 578 1735 817 578 1736 56 579 1737 819 579 1738 59 579 1739 819 580 1740 820 580 1741 821 580 1742 59 581 1743 823 581 1744 61 581 1745 760 582 1746 824 582 1747 737 582 1748 364 583 1749 828 583 1750 829 583 1751 611 584 1752 366 584 1753 613 584 1754 829 585 1755 618 585 1756 619 585 1757 788 586 1758 611 586 1759 828 586 1760 68 587 1761 144 587 1762 136 587 1763 17 588 1764 94 588 1765 89 588 1766 57 589 1767 135 589 1768 143 589 1769 16 590 1770 93 590 1771 92 590 1772 35 591 1773 13 591 1774 12 591 1775 45 592 1776 123 592 1777 117 592 1778 69 593 1779 143 593 1780 144 593 1781 33 594 1782 108 594 1783 79 594 1784 66 595 1785 142 595 1786 137 595 1787 11 596 1788 86 596 1789 93 596 1790 381 597 1791 506 597 1792 505 597 1793 32 598 1794 107 598 1795 106 598 1796 60 599 1797 133 599 1798 141 599 1799 14 600 1800 92 600 1801 91 600 1802 37 601 1803 35 601 1804 34 601 1805 31 602 1806 105 602 1807 108 602 1808 67 603 1809 141 603 1810 142 603 1811 803 604 1812 321 604 1813 461 604 1814 409 605 1815 516 605 1816 523 605 1817 65 606 1818 140 606 1819 138 606 1820 30 607 1821 106 607 1822 105 607 1823 10 608 1824 87 608 1825 90 608 1826 333 609 1827 475 609 1828 478 609 1829 64 610 1830 138 610 1831 139 610 1832 13 611 1833 89 611 1834 86 611 1835 355 612 1836 491 612 1837 466 612 1838 29 613 1839 80 613 1840 75 613 1841 6 614 1842 82 614 1843 88 614 1844 28 615 1845 79 615 1846 81 615 1847 86 616 1848 165 616 1849 172 616 1850 108 617 1851 187 617 1852 158 617 1853 129 618 1854 208 618 1855 207 618 1856 120 619 1857 198 619 1858 229 619 1859 92 620 1860 171 620 1861 170 620 1862 107 621 1863 186 621 1864 185 621 1865 127 622 1866 206 622 1867 205 622 1868 148 623 1869 229 623 1870 228 623 1871 87 624 1872 166 624 1873 169 624 1874 105 625 1875 184 625 1876 187 625 1877 125 626 1878 204 626 1879 203 626 1880 89 627 1881 168 627 1882 165 627 1883 123 628 1884 201 628 1885 196 628 1886 753 629 1887 767 629 1888 769 629 1889 82 630 1890 161 630 1891 167 630 1892 106 631 1893 185 631 1894 184 631 1895 117 632 1896 202 632 1897 201 632 1898 411 633 1899 518 633 1900 520 633 1901 86 634 1902 165 634 1903 166 634 1904 119 635 1905 196 635 1906 200 635 1907 144 636 1908 225 636 1909 215 636 1910 80 637 1911 159 637 1912 154 637 1913 135 638 1914 214 638 1915 224 638 1916 49 639 1917 125 639 1918 124 639 1919 70 640 1920 146 640 1921 145 640 1922 46 641 1923 127 641 1924 126 641 1925 18 642 1926 96 642 1927 95 642 1928 51 643 1929 129 643 1930 128 643 1931 36 644 1932 88 644 1933 109 644 1934 15 645 1935 91 645 1936 97 645 1937 0 646 1938 75 646 1939 74 646 1940 642 647 1941 641 647 1942 639 647 1943 1 648 1944 77 648 1945 76 648 1946 72 649 1947 148 649 1948 147 649 1949 53 650 1950 130 650 1951 129 650 1952 20 651 1953 97 651 1954 96 651 1955 3 652 1956 78 652 1957 77 652 1958 368 653 1959 500 653 1960 497 653 1961 620 654 1962 623 654 1963 624 654 1964 21 655 1965 98 655 1966 94 655 1967 73 656 1968 147 656 1969 123 656 1970 292 657 1971 503 657 1972 450 657 1973 4 658 1974 76 658 1975 80 658 1976 54 659 1977 131 659 1978 133 659 1979 38 660 1980 113 660 1981 112 660 1982 22 661 1983 100 661 1984 99 661 1985 293 662 1986 706 662 1987 707 662 1988 39 663 1989 109 663 1990 113 663 1991 19 664 1992 95 664 1993 101 664 1994 52 665 1995 136 665 1996 135 665 1997 616 666 1998 617 666 1999 620 666 2000 23 667 2001 99 667 2002 102 667 2003 7 668 2004 83 668 2005 82 668 2006 706 669 2007 504 669 2008 709 669 2009 707 670 2010 706 670 2011 709 670 2012 710 671 2013 711 671 2014 708 671 2015 508 672 2016 710 672 2017 708 672 2018 709 673 2019 508 673 2020 708 673 2021 24 674 2022 101 674 2023 100 674 2024 5 675 2025 81 675 2026 84 675 2027 58 676 2028 137 676 2029 135 676 2030 620 677 2031 40 677 2032 619 677 2033 25 678 2034 102 678 2035 98 678 2036 8 679 2037 84 679 2038 83 679 2039 617 680 2040 626 680 2041 623 680 2042 9 681 2043 85 681 2044 78 681 2045 43 682 2046 117 682 2047 116 682 2048 26 683 2049 103 683 2050 99 683 2051 25 684 2052 102 684 2053 104 684 2054 11 685 2055 86 685 2056 87 685 2057 42 686 2058 116 686 2059 119 686 2060 223 687 2061 306 687 2062 299 687 2063 180 688 2064 265 688 2065 264 688 2066 199 689 2067 284 689 2068 278 689 2069 212 690 2070 295 690 2071 305 690 2072 178 691 2073 263 691 2074 266 691 2075 222 692 2076 305 692 2077 306 692 2078 155 693 2079 240 693 2080 244 693 2081 174 694 2082 259 694 2083 265 694 2084 197 695 2085 282 695 2086 281 695 2087 715 696 2088 714 696 2089 503 696 2090 179 697 2091 264 697 2092 263 697 2093 194 698 2094 279 698 2095 280 698 2096 219 699 2097 302 699 2098 303 699 2099 157 700 2100 242 700 2101 241 700 2102 193 701 2103 278 701 2104 279 701 2105 217 702 2106 300 702 2107 295 702 2108 156 703 2109 241 703 2110 240 703 2111 177 704 2112 262 704 2113 258 704 2114 217 705 2115 300 705 2116 301 705 2117 154 706 2118 239 706 2119 238 706 2120 176 707 2121 261 707 2122 260 707 2123 233 708 2124 316 708 2125 315 708 2126 190 709 2127 275 709 2128 274 709 2129 147 710 2130 228 710 2131 201 710 2132 130 711 2133 209 711 2134 208 711 2135 88 712 2136 167 712 2137 188 712 2138 93 713 2139 172 713 2140 171 713 2141 725 714 2142 718 714 2143 722 714 2144 110 715 2145 189 715 2146 164 715 2147 94 716 2148 173 716 2149 168 716 2150 131 717 2151 211 717 2152 212 717 2153 712 718 2154 713 718 2155 451 718 2156 112 719 2157 191 719 2158 190 719 2159 96 720 2160 175 720 2161 174 720 2162 136 721 2163 215 721 2164 214 721 2165 113 722 2166 192 722 2167 191 722 2168 1 723 2169 149 723 2170 150 723 2171 91 724 2172 170 724 2173 176 724 2174 717 725 2175 503 725 2176 451 725 2177 109 726 2178 188 726 2179 192 726 2180 137 727 2181 216 727 2182 214 727 2183 111 728 2184 190 728 2185 189 728 2186 97 729 2187 176 729 2188 175 729 2189 75 730 2190 154 730 2191 153 730 2192 98 731 2193 177 731 2194 173 731 2195 77 732 2196 156 732 2197 155 732 2198 114 733 2199 193 733 2200 194 733 2201 78 734 2202 157 734 2203 156 734 2204 100 735 2205 179 735 2206 178 735 2207 95 736 2208 174 736 2209 180 736 2210 76 737 2211 155 737 2212 159 737 2213 115 738 2214 194 738 2215 195 738 2216 99 739 2217 178 739 2218 181 739 2219 138 740 2220 219 740 2221 220 740 2222 116 741 2223 197 741 2224 196 741 2225 101 742 2226 180 742 2227 179 742 2228 140 743 2229 221 743 2230 219 743 2231 102 744 2232 181 744 2233 177 744 2234 83 745 2235 162 745 2236 161 745 2237 141 746 2238 222 746 2239 223 746 2240 121 747 2241 199 747 2242 193 747 2243 81 748 2244 160 748 2245 163 748 2246 133 749 2247 212 749 2248 222 749 2249 10 750 2250 152 750 2251 151 750 2252 103 751 2253 182 751 2254 178 751 2255 142 752 2256 223 752 2257 216 752 2258 102 753 2259 181 753 2260 183 753 2261 84 754 2262 163 754 2263 162 754 2264 143 755 2265 224 755 2266 225 755 2267 79 756 2268 158 756 2269 160 756 2270 85 757 2271 164 757 2272 157 757 2273 206 758 2274 233 758 2275 232 758 2276 204 759 2277 231 759 2278 230 759 2279 302 760 2280 385 760 2281 386 760 2282 241 761 2283 324 761 2284 323 761 2285 262 762 2286 345 762 2287 341 762 2288 300 763 2289 383 763 2290 378 763 2291 239 764 2292 322 764 2293 321 764 2294 261 765 2295 344 765 2296 343 765 2297 275 766 2298 358 766 2299 357 766 2300 300 767 2301 383 767 2302 384 767 2303 236 768 2304 319 768 2305 320 768 2306 273 769 2307 356 769 2308 360 769 2309 234 770 2310 317 770 2311 318 770 2312 255 771 2313 338 771 2314 344 771 2315 277 772 2316 360 772 2317 359 772 2318 260 773 2319 343 773 2320 342 773 2321 276 774 2322 359 774 2323 358 774 2324 296 775 2325 379 775 2326 383 775 2327 299 776 2328 382 776 2329 380 776 2330 258 777 2331 341 777 2332 336 777 2333 274 778 2334 357 778 2335 332 778 2336 746 779 2337 376 779 2338 743 779 2339 257 780 2340 340 780 2341 339 780 2342 252 781 2343 335 781 2344 356 781 2345 298 782 2346 381 782 2347 380 782 2348 716 783 2349 718 783 2350 722 783 2351 181 784 2352 266 784 2353 262 784 2354 162 785 2355 247 785 2356 246 785 2357 224 786 2358 307 786 2359 308 786 2360 160 787 2361 245 787 2362 248 787 2363 214 788 2364 297 788 2365 307 788 2366 182 789 2367 267 789 2368 263 789 2369 225 790 2370 308 790 2371 298 790 2372 181 791 2373 266 791 2374 268 791 2375 163 792 2376 248 792 2377 247 792 2378 196 793 2379 281 793 2380 285 793 2381 158 794 2382 243 794 2383 245 794 2384 164 795 2385 249 795 2386 242 795 2387 202 796 2388 287 796 2389 286 796 2390 159 797 2391 244 797 2392 239 797 2393 229 798 2394 312 798 2395 311 798 2396 201 799 2397 286 799 2398 281 799 2399 165 800 2400 250 800 2401 251 800 2402 198 801 2403 283 801 2404 312 801 2405 203 802 2406 288 802 2407 289 802 2408 185 803 2409 270 803 2410 269 803 2411 161 804 2412 246 804 2413 252 804 2414 228 805 2415 311 805 2416 286 805 2417 168 806 2418 253 806 2419 250 806 2420 208 807 2421 291 807 2422 290 807 2423 184 808 2424 269 808 2425 272 808 2426 166 809 2427 251 809 2428 254 809 2429 454 810 2430 450 810 2431 503 810 2432 186 811 2433 271 811 2434 270 811 2435 171 812 2436 256 812 2437 255 812 2438 719 813 2439 714 813 2440 292 813 2441 187 814 2442 272 814 2443 243 814 2444 165 815 2445 250 815 2446 257 815 2447 211 816 2448 294 816 2449 295 816 2450 715 817 2451 721 817 2452 722 817 2453 167 818 2454 252 818 2455 273 818 2456 172 819 2457 257 819 2458 256 819 2459 215 820 2460 298 820 2461 297 820 2462 123 821 2463 236 821 2464 237 821 2465 189 822 2466 274 822 2467 249 822 2468 173 823 2469 258 823 2470 253 823 2471 725 824 2472 210 824 2473 724 824 2474 92 825 2475 234 825 2476 235 825 2477 216 826 2478 299 826 2479 297 826 2480 191 827 2481 276 827 2482 275 827 2483 175 828 2484 260 828 2485 259 828 2486 213 829 2487 296 829 2488 300 829 2489 192 830 2490 277 830 2491 276 830 2492 170 831 2493 255 831 2494 261 831 2495 188 832 2496 273 832 2497 277 832 2498 231 833 2499 314 833 2500 313 833 2501 339 834 2502 477 834 2503 476 834 2504 354 835 2505 490 835 2506 489 835 2507 411 836 2508 518 836 2509 519 836 2510 352 837 2511 488 837 2512 491 837 2513 412 838 2514 519 838 2515 517 838 2516 336 839 2517 474 839 2518 475 839 2519 409 840 2520 516 840 2521 518 840 2522 329 841 2523 469 841 2524 473 841 2525 353 842 2526 489 842 2527 488 842 2528 410 843 2529 517 843 2530 516 843 2531 419 844 2532 524 844 2533 516 844 2534 13 845 2535 441 845 2536 442 845 2537 528 846 2538 459 846 2539 460 846 2540 749 847 2541 729 847 2542 742 847 2543 363 848 2544 403 848 2545 404 848 2546 327 849 2547 467 849 2548 462 849 2549 369 850 2550 501 850 2551 502 850 2552 420 851 2553 523 851 2554 518 851 2555 332 852 2556 472 852 2557 465 852 2558 63 853 2559 453 853 2560 456 853 2561 326 854 2562 466 854 2563 468 854 2564 278 855 2565 361 855 2566 362 855 2567 242 856 2568 325 856 2569 324 856 2570 719 857 2571 720 857 2572 725 857 2573 264 858 2574 347 858 2575 346 858 2576 305 859 2577 388 859 2578 389 859 2579 259 860 2580 342 860 2581 348 860 2582 240 861 2583 323 861 2584 327 861 2585 295 862 2586 378 862 2587 388 862 2588 263 863 2589 346 863 2590 349 863 2591 306 864 2592 389 864 2593 382 864 2594 284 865 2595 367 865 2596 361 865 2597 265 866 2598 348 866 2599 347 866 2600 307 867 2601 390 867 2602 391 867 2603 266 868 2604 349 868 2605 345 868 2606 247 869 2607 330 869 2608 329 869 2609 297 870 2610 380 870 2611 390 870 2612 245 871 2613 328 871 2614 331 871 2615 308 872 2616 391 872 2617 381 872 2618 267 873 2619 350 873 2620 346 873 2621 266 874 2622 349 874 2623 351 874 2624 248 875 2625 331 875 2626 330 875 2627 281 876 2628 364 876 2629 368 876 2630 243 877 2631 326 877 2632 328 877 2633 249 878 2634 332 878 2635 325 878 2636 312 879 2637 394 879 2638 393 879 2639 287 880 2640 370 880 2641 369 880 2642 244 881 2643 327 881 2644 322 881 2645 283 882 2646 366 882 2647 394 882 2648 286 883 2649 369 883 2650 364 883 2651 250 884 2652 333 884 2653 334 884 2654 311 885 2655 393 885 2656 369 885 2657 288 886 2658 371 886 2659 372 886 2660 270 887 2661 353 887 2662 352 887 2663 246 888 2664 329 888 2665 335 888 2666 314 889 2667 396 889 2668 395 889 2669 291 890 2670 374 890 2671 373 890 2672 253 891 2673 336 891 2674 333 891 2675 316 892 2676 398 892 2677 397 892 2678 716 893 2679 723 893 2680 375 893 2681 269 894 2682 352 894 2683 355 894 2684 251 895 2685 334 895 2686 337 895 2687 745 896 2688 376 896 2689 747 896 2690 271 897 2691 354 897 2692 353 897 2693 256 898 2694 339 898 2695 338 898 2696 294 899 2697 377 899 2698 378 899 2699 272 900 2700 355 900 2701 326 900 2702 250 901 2703 333 901 2704 340 901 2705 367 902 2706 404 902 2707 402 902 2708 361 903 2709 402 903 2710 401 903 2711 279 904 2712 402 904 2713 404 904 2714 363 905 2715 280 905 2716 279 905 2717 310 906 2718 417 906 2719 416 906 2720 12 907 2721 442 907 2722 440 907 2723 279 908 2724 411 908 2725 412 908 2726 280 909 2727 409 909 2728 411 909 2729 408 910 2730 410 910 2731 409 910 2732 404 911 2733 414 911 2734 418 911 2735 402 912 2736 413 912 2737 414 912 2738 400 913 2739 412 913 2740 410 913 2741 279 914 2742 411 914 2743 413 914 2744 403 915 2745 415 915 2746 414 915 2747 409 916 2748 419 916 2749 420 916 2750 411 917 2751 420 917 2752 421 917 2753 413 918 2754 421 918 2755 422 918 2756 414 919 2757 422 919 2758 424 919 2759 415 920 2760 423 920 2761 422 920 2762 393 921 2763 514 921 2764 501 921 2765 421 922 2766 428 922 2767 426 922 2768 424 923 2769 430 923 2770 429 923 2771 422 924 2772 429 924 2773 428 924 2774 420 925 2775 427 925 2776 425 925 2777 429 926 2778 435 926 2779 434 926 2780 427 927 2781 433 927 2782 431 927 2783 430 928 2784 436 928 2785 435 928 2786 428 929 2787 434 929 2788 432 929 2789 433 930 2790 438 930 2791 437 930 2792 441 931 2793 439 931 2794 440 931 2795 444 932 2796 443 932 2797 445 932 2798 748 933 2799 731 933 2800 744 933 2801 730 934 2802 731 934 2803 736 934 2804 464 935 2805 465 935 2806 468 935 2807 463 936 2808 468 936 2809 466 936 2810 472 937 2811 469 937 2812 470 937 2813 465 938 2814 472 938 2815 471 938 2816 478 939 2817 479 939 2818 476 939 2819 475 940 2820 474 940 2821 479 940 2822 483 941 2823 480 941 2824 481 941 2825 479 942 2826 483 942 2827 482 942 2828 486 943 2829 487 943 2830 484 943 2831 480 944 2832 483 944 2833 487 944 2834 467 945 2835 466 945 2836 461 945 2837 491 946 2838 488 946 2839 489 946 2840 466 947 2841 491 947 2842 490 947 2843 469 948 2844 472 948 2845 493 948 2846 494 949 2847 495 949 2848 496 949 2849 493 950 2850 494 950 2851 492 950 2852 497 951 2853 500 951 2854 502 951 2855 756 952 2856 769 952 2857 763 952 2858 762 953 2859 754 953 2860 755 953 2861 507 954 2862 511 954 2863 510 954 2864 506 955 2865 513 955 2866 512 955 2867 501 956 2868 514 956 2869 515 956 2870 516 957 2871 517 957 2872 519 957 2873 520 958 2874 518 958 2875 523 958 2876 521 959 2877 520 959 2878 523 959 2879 524 960 2880 525 960 2881 522 960 2882 516 961 2883 524 961 2884 522 961 2885 523 962 2886 516 962 2887 522 962 2888 423 963 2889 525 963 2890 524 963 2891 733 964 2892 732 964 2893 741 964 2894 335 965 2895 473 965 2896 492 965 2897 340 966 2898 478 966 2899 477 966 2900 424 967 2901 522 967 2902 525 967 2903 751 968 2904 750 968 2905 753 968 2906 357 969 2907 493 969 2908 472 969 2909 341 970 2910 479 970 2911 474 970 2912 744 971 2913 731 971 2914 730 971 2915 755 972 2916 754 972 2917 751 972 2918 359 973 2919 495 973 2920 494 973 2921 343 974 2922 481 974 2923 480 974 2924 360 975 2925 496 975 2926 495 975 2927 338 976 2928 476 976 2929 482 976 2930 737 977 2931 739 977 2932 740 977 2933 356 978 2934 492 978 2935 496 978 2936 751 979 2937 760 979 2938 761 979 2939 358 980 2940 494 980 2941 493 980 2942 344 981 2943 482 981 2944 481 981 2945 322 982 2946 462 982 2947 461 982 2948 345 983 2949 483 983 2950 479 983 2951 57 984 2952 452 984 2953 449 984 2954 324 985 2955 464 985 2956 463 985 2957 41 986 2958 40 986 2959 619 986 2960 526 987 2961 458 987 2962 457 987 2963 25 988 2964 443 988 2965 444 988 2966 737 989 2967 731 989 2968 736 989 2969 325 990 2970 465 990 2971 464 990 2972 388 991 2973 510 991 2974 511 991 2975 347 992 2976 485 992 2977 484 992 2978 378 993 2979 509 993 2980 510 993 2981 342 994 2982 480 994 2983 486 994 2984 323 995 2985 463 995 2986 467 995 2987 389 996 2988 511 996 2989 507 996 2990 346 997 2991 484 997 2992 487 997 2993 616 998 2994 614 998 2995 626 998 2996 26 999 2997 446 999 2998 445 999 2999 390 1000 3000 512 1000 3001 513 1000 3002 367 1001 3003 499 1001 3004 498 1001 3005 348 1002 3006 486 1002 3007 485 1002 3008 23 1003 3009 444 1003 3010 446 1003 3011 380 1004 3012 505 1004 3013 512 1004 3014 349 1005 3015 487 1005 3016 483 1005 3017 330 1006 3018 470 1006 3019 469 1006 3020 27 1007 3021 445 1007 3022 443 1007 3023 391 1008 3024 513 1008 3025 506 1008 3026 10 1009 3027 440 1009 3028 439 1009 3029 421 1010 3030 520 1010 3031 521 1010 3032 328 1011 3033 468 1011 3034 471 1011 3035 394 1012 3036 515 1012 3037 514 1012 3038 743 1013 3039 742 1013 3040 729 1013 3041 366 1014 3042 497 1014 3043 515 1014 3044 11 1015 3045 439 1015 3046 441 1015 3047 422 1016 3048 521 1016 3049 522 1016 3050 364 1017 3051 502 1017 3052 500 1017 3053 733 1018 3054 734 1018 3055 737 1018 3056 331 1019 3057 471 1019 3058 470 1019 3059 117 1020 3060 526 1020 3061 529 1020 3062 119 1021 3063 528 1021 3064 527 1021 3065 529 1022 3066 528 1022 3067 502 1022 3068 534 1023 3069 458 1023 3070 501 1023 3071 526 1024 3072 527 1024 3073 501 1024 3074 541 1025 3075 545 1025 3076 543 1025 3077 532 1026 3078 540 1026 3079 542 1026 3080 538 1027 3081 542 1027 3082 541 1027 3083 530 1028 3084 539 1028 3085 540 1028 3086 537 1029 3087 541 1029 3088 539 1029 3089 545 1030 3090 549 1030 3091 547 1030 3092 539 1031 3093 543 1031 3094 544 1031 3095 540 1032 3096 544 1032 3097 546 1032 3098 542 1033 3099 546 1033 3100 545 1033 3101 543 1034 3102 547 1034 3103 548 1034 3104 533 1035 3105 550 1035 3106 551 1035 3107 550 1036 3108 552 1036 3109 553 1036 3110 526 1037 3111 554 1037 3112 555 1037 3113 552 1038 3114 556 1038 3115 557 1038 3116 531 1039 3117 554 1039 3118 370 1039 3119 556 1040 3120 369 1040 3121 555 1040 3122 547 1041 3123 528 1041 3124 364 1041 3125 547 1042 3126 548 1042 3127 556 1042 3128 572 1043 3129 568 1043 3130 574 1043 3131 573 1044 3132 560 1044 3133 574 1044 3134 558 1045 3135 566 1045 3136 569 1045 3137 574 1046 3138 570 1046 3139 569 1046 3140 572 1047 3141 568 1047 3142 567 1047 3143 592 1048 3144 609 1048 3145 597 1048 3146 578 1049 3147 595 1049 3148 601 1049 3149 577 1050 3150 594 1050 3151 593 1050 3152 580 1051 3153 597 1051 3154 599 1051 3155 583 1052 3156 600 1052 3157 602 1052 3158 576 1053 3159 593 1053 3160 597 1053 3161 562 1054 3162 577 1054 3163 576 1054 3164 567 1055 3165 578 1055 3166 584 1055 3167 558 1056 3168 592 1056 3169 580 1056 3170 560 1057 3171 589 1057 3172 586 1057 3173 569 1058 3174 582 1058 3175 587 1058 3176 570 1059 3177 583 1059 3178 592 1059 3179 562 1060 3180 577 1060 3181 581 1060 3182 573 1061 3183 590 1061 3184 589 1061 3185 624 1062 3186 564 1062 3187 610 1062 3188 575 1063 3189 587 1063 3190 590 1063 3191 568 1064 3192 579 1064 3193 586 1064 3194 611 1065 3195 591 1065 3196 588 1065 3197 563 1066 3198 576 1066 3199 580 1066 3200 612 1067 3201 596 1067 3202 595 1067 3203 570 1068 3204 583 1068 3205 585 1068 3206 619 1069 3207 596 1069 3208 612 1069 3209 566 1070 3210 580 1070 3211 582 1070 3212 602 1071 3213 559 1071 3214 561 1071 3215 603 1072 3216 596 1072 3217 602 1072 3218 603 1073 3219 606 1073 3220 607 1073 3221 599 1074 3222 597 1074 3223 609 1074 3224 599 1075 3225 600 1075 3226 603 1075 3227 595 1076 3228 596 1076 3229 602 1076 3230 589 1077 3231 606 1077 3232 603 1077 3233 582 1078 3234 599 1078 3235 604 1078 3236 583 1079 3237 600 1079 3238 609 1079 3239 577 1080 3240 594 1080 3241 598 1080 3242 590 1081 3243 607 1081 3244 606 1081 3245 611 1082 3246 610 1082 3247 594 1082 3248 587 1083 3249 604 1083 3250 607 1083 3251 579 1084 3252 596 1084 3253 603 1084 3254 616 1085 3255 605 1085 3256 608 1085 3257 613 1086 3258 612 1086 3259 610 1086 3260 599 1087 3261 625 1087 3262 622 1087 3263 639 1088 3264 636 1088 3265 635 1088 3266 638 1089 3267 627 1089 3268 639 1089 3269 638 1090 3270 627 1090 3271 628 1090 3272 684 1091 3273 682 1091 3274 692 1091 3275 645 1092 3276 662 1092 3277 663 1092 3278 655 1093 3279 670 1093 3280 669 1093 3281 647 1094 3282 664 1094 3283 674 1094 3284 659 1095 3285 674 1095 3286 673 1095 3287 658 1096 3288 673 1096 3289 663 1096 3290 632 1097 3291 657 1097 3292 656 1097 3293 636 1098 3294 650 1098 3295 648 1098 3296 643 1099 3297 660 1099 3298 654 1099 3299 636 1100 3300 650 1100 3301 660 1100 3302 635 1101 3303 652 1101 3304 647 1101 3305 641 1102 3306 658 1102 3307 646 1102 3308 642 1103 3309 659 1103 3310 658 1103 3311 640 1104 3312 647 1104 3313 659 1104 3314 628 1105 3315 655 1105 3316 653 1105 3317 627 1106 3318 645 1106 3319 646 1106 3320 630 1107 3321 651 1107 3322 654 1107 3323 629 1108 3324 649 1108 3325 644 1108 3326 667 1109 3327 682 1109 3328 692 1109 3329 667 1110 3330 682 1110 3331 680 1110 3332 672 1111 3333 689 1111 3334 688 1111 3335 649 1112 3336 666 1112 3337 661 1112 3338 657 1113 3339 672 1113 3340 671 1113 3341 650 1114 3342 667 1114 3343 665 1114 3344 650 1115 3345 667 1115 3346 675 1115 3347 678 1116 3348 690 1116 3349 691 1116 3350 684 1117 3351 682 1117 3352 678 1117 3353 678 1118 3354 677 1118 3355 680 1118 3356 687 1119 3357 677 1119 3358 680 1119 3359 673 1120 3360 690 1120 3361 678 1120 3362 674 1121 3363 691 1121 3364 690 1121 3365 664 1122 3366 679 1122 3367 691 1122 3368 670 1123 3369 687 1123 3370 685 1123 3371 662 1124 3372 677 1124 3373 678 1124 3374 666 1125 3375 681 1125 3376 676 1125 3377 679 1126 3378 704 1126 3379 705 1126 3380 686 1127 3381 703 1127 3382 697 1127 3383 677 1128 3384 700 1128 3385 701 1128 3386 703 1129 3387 701 1129 3388 680 1129 3389 700 1130 3390 677 1130 3391 687 1130 3392 679 1131 3393 687 1131 3394 702 1131 3395 689 1132 3396 698 1132 3397 699 1132 3398 689 1133 3399 688 1133 3400 697 1133 3401 766 1134 3402 750 1134 3403 757 1134 3404 752 1135 3405 757 1135 3406 768 1135 3407 759 1136 3408 764 1136 3409 765 1136 3410 759 1137 3411 758 1137 3412 763 1137 3413 451 1138 3414 383 1138 3415 379 1138 3416 729 1139 3417 764 1139 3418 766 1139 3419 321 1140 3420 325 1140 3421 324 1140 3422 328 1141 3423 330 1141 3424 329 1141 3425 384 1142 3426 760 1142 3427 349 1142 3428 347 1143 3429 346 1143 3430 772 1143 3431 348 1144 3432 347 1144 3433 353 1144 3434 338 1145 3435 339 1145 3436 773 1145 3437 333 1146 3438 331 1146 3439 330 1146 3440 778 1147 3441 773 1147 3442 334 1147 3443 770 1148 3444 775 1148 3445 781 1148 3446 339 1149 3447 773 1149 3448 778 1149 3449 774 1150 3450 773 1150 3451 334 1150 3452 771 1151 3453 772 1151 3454 344 1151 3455 770 1152 3456 776 1152 3457 778 1152 3458 343 1153 3459 779 1153 3460 781 1153 3461 781 1154 3462 780 1154 3463 347 1154 3464 594 1155 3465 782 1155 3466 783 1155 3467 695 1156 3468 785 1156 3469 786 1156 3470 695 1157 3471 785 1157 3472 784 1157 3473 448 1158 3474 787 1158 3475 788 1158 3476 549 1159 3477 790 1159 3478 789 1159 3479 282 1160 3480 789 1160 3481 790 1160 3482 546 1161 3483 790 1161 3484 531 1161 3485 531 1162 3486 791 1162 3487 792 1162 3488 556 1163 3489 536 1163 3490 793 1163 3491 693 1164 3492 795 1164 3493 796 1164 3494 615 1165 3495 447 1165 3496 797 1165 3497 219 1166 3498 221 1166 3499 800 1166 3500 57 1167 3501 802 1167 3502 801 1167 3503 737 1168 3504 805 1168 3505 804 1168 3506 804 1169 3507 805 1169 3508 807 1169 3509 110 1170 3510 808 1170 3511 809 1170 3512 808 1171 3513 810 1171 3514 811 1171 3515 324 1172 3516 812 1172 3517 813 1172 3518 61 1173 3519 815 1173 3520 814 1173 3521 815 1174 3522 61 1174 3523 816 1174 3524 56 1175 3525 818 1175 3526 819 1175 3527 819 1176 3528 818 1176 3529 820 1176 3530 59 1177 3531 822 1177 3532 823 1177 3533 760 1178 3534 825 1178 3535 824 1178 3536 364 1179 3537 528 1179 3538 828 1179 3539 611 1180 3540 497 1180 3541 366 1180 3542 829 1181 3543 828 1181 3544 618 1181 3545 788 1182 3546 787 1182 3547 611 1182 3548</p>
        </triangles>
      </mesh>
    </geometry>
  </library_geometries>
  <library_visual_scenes>
    <visual_scene id="Scene" name="Scene">
      <node id="Plane" name="Plane" type="NODE">
        <matrix sid="transform">2.5 0 0 0 0 0.15 0 0 0 0 1 0 0 0 0 1</matrix>
        <instance_geometry url="#Plane-mesh" name="Plane">
          <bind_material>
            <technique_common>
              <instance_material symbol="Material_002-material" target="#Material_002-material">
                <bind_vertex_input semantic="UVMap" input_semantic="TEXCOORD" input_set="0"/>
              </instance_material>
            </technique_common>
          </bind_material>
        </instance_geometry>
      </node>
    </visual_scene>
  </library_visual_scenes>
  <scene>
    <instance_visual_scene url="#Scene"/>
  </scene>
</COLLADA>